solid OpenSCAD_Model
  facet normal -1 0 0
    outer loop
      vertex 0 0 0
      vertex 0 28.4 6.7
      vertex 0 28.4 0
    endloop
  endfacet
  facet normal -1 -0 0
    outer loop
      vertex 0 28.4 6.7
      vertex 0 0 0
      vertex 0 0 6.7
    endloop
  endfacet
  facet normal 0 0 1
    outer loop
      vertex 18.2 28.5 6.7
      vertex 10.2 28.5 6.7
      vertex 18.2 28.4 6.7
    endloop
  endfacet
  facet normal 0 0 1
    outer loop
      vertex 28.4 28.4 6.7
      vertex 26.9 26.9 6.7
      vertex 28.4 0 6.7
    endloop
  endfacet
  facet normal -0 0 1
    outer loop
      vertex 18.2 28.4 6.7
      vertex 26.9 26.9 6.7
      vertex 28.4 28.4 6.7
    endloop
  endfacet
  facet normal 0 0 1
    outer loop
      vertex 10.2 28.4 6.7
      vertex 18.2 28.4 6.7
      vertex 10.2 28.5 6.7
    endloop
  endfacet
  facet normal 0 0 1
    outer loop
      vertex 18.2 28.4 6.7
      vertex 10.2 28.4 6.7
      vertex 26.9 26.9 6.7
    endloop
  endfacet
  facet normal 0 0 1
    outer loop
      vertex 10.2 28.4 6.7
      vertex 1.2 26.9 6.7
      vertex 26.9 26.9 6.7
    endloop
  endfacet
  facet normal 0 0 1
    outer loop
      vertex 0 0 6.7
      vertex 1.2 26.9 6.7
      vertex 0 28.4 6.7
    endloop
  endfacet
  facet normal -0 0 1
    outer loop
      vertex 0 28.4 6.7
      vertex 1.2 26.9 6.7
      vertex 10.2 28.4 6.7
    endloop
  endfacet
  facet normal -0 0 1
    outer loop
      vertex 26.9 1.2 6.7
      vertex 28.4 0 6.7
      vertex 26.9 26.9 6.7
    endloop
  endfacet
  facet normal 0 0 1
    outer loop
      vertex 18.2 0 6.7
      vertex 26.9 1.2 6.7
      vertex 18.2 1.2 6.7
    endloop
  endfacet
  facet normal 0 0 1
    outer loop
      vertex 26.9 1.2 6.7
      vertex 18.2 0 6.7
      vertex 28.4 0 6.7
    endloop
  endfacet
  facet normal -0 0 1
    outer loop
      vertex 1.2 1.2 6.7
      vertex 10.2 0 6.7
      vertex 10.2 1.2 6.7
    endloop
  endfacet
  facet normal 0 0 1
    outer loop
      vertex 1.2 1.2 6.7
      vertex 0 0 6.7
      vertex 10.2 0 6.7
    endloop
  endfacet
  facet normal 0 0 1
    outer loop
      vertex 1.2 26.9 6.7
      vertex 0 0 6.7
      vertex 1.2 1.2 6.7
    endloop
  endfacet
  facet normal 0 0 1
    outer loop
      vertex 10.2 1.2 6.7
      vertex 18.2 1.2 6.7
      vertex 18.2 1.3 6.7
    endloop
  endfacet
  facet normal 0 0 1
    outer loop
      vertex 18.2 1.2 6.7
      vertex 10.2 1.2 6.7
      vertex 18.2 0 6.7
    endloop
  endfacet
  facet normal 0 0 1
    outer loop
      vertex 10.2 1.2 6.7
      vertex 18.2 1.3 6.7
      vertex 10.2 1.3 6.7
    endloop
  endfacet
  facet normal 0 0 1
    outer loop
      vertex 10.2 0 6.7
      vertex 18.2 0 6.7
      vertex 10.2 1.2 6.7
    endloop
  endfacet
  facet normal 0 0 1
    outer loop
      vertex 18.2 0 6.7
      vertex 10.2 0 6.7
      vertex 18.2 -0.0999994 6.7
    endloop
  endfacet
  facet normal 0 0 1
    outer loop
      vertex 18.2 -0.0999994 6.7
      vertex 10.2 0 6.7
      vertex 10.2 -0.0999994 6.7
    endloop
  endfacet
  facet normal 1 -0 0
    outer loop
      vertex 28.4 0 6.7
      vertex 28.4 28.4 0
      vertex 28.4 28.4 6.7
    endloop
  endfacet
  facet normal 1 0 0
    outer loop
      vertex 28.4 28.4 0
      vertex 28.4 0 6.7
      vertex 28.4 0 0
    endloop
  endfacet
  facet normal 0 0 -1
    outer loop
      vertex 0 0 0
      vertex 10.2 28.4 0
      vertex 10.2 0 0
    endloop
  endfacet
  facet normal -0 0 -1
    outer loop
      vertex 10.2 28.4 0
      vertex 0 0 0
      vertex 0 28.4 0
    endloop
  endfacet
  facet normal 0 0 -1
    outer loop
      vertex 10.2 0 0
      vertex 18.2 0 0
      vertex 18.2 -0.0999994 0
    endloop
  endfacet
  facet normal 0 0 -1
    outer loop
      vertex 18.2 0 0
      vertex 10.2 0 0
      vertex 18.2 28.4 0
    endloop
  endfacet
  facet normal 0 0 -1
    outer loop
      vertex 10.2 0 0
      vertex 18.2 -0.0999994 0
      vertex 10.2 -0.0999994 0
    endloop
  endfacet
  facet normal 0 0 -1
    outer loop
      vertex 10.2 28.4 0
      vertex 18.2 28.4 0
      vertex 10.2 0 0
    endloop
  endfacet
  facet normal 0 0 -1
    outer loop
      vertex 18.2 28.4 0
      vertex 10.2 28.4 0
      vertex 18.2 28.5 0
    endloop
  endfacet
  facet normal -0 0 -1
    outer loop
      vertex 18.2 28.5 0
      vertex 10.2 28.4 0
      vertex 10.2 28.5 0
    endloop
  endfacet
  facet normal 0 0 -1
    outer loop
      vertex 18.2 0 0
      vertex 28.4 28.4 0
      vertex 28.4 0 0
    endloop
  endfacet
  facet normal -0 0 -1
    outer loop
      vertex 28.4 28.4 0
      vertex 18.2 0 0
      vertex 18.2 28.4 0
    endloop
  endfacet
  facet normal 0 -1 0
    outer loop
      vertex 18.2 0 0
      vertex 28.4 0 6.7
      vertex 18.2 0 6.7
    endloop
  endfacet
  facet normal 0 -1 -0
    outer loop
      vertex 28.4 0 6.7
      vertex 18.2 0 0
      vertex 28.4 0 0
    endloop
  endfacet
  facet normal 0 -1 0
    outer loop
      vertex 0 0 0
      vertex 10.2 0 6.7
      vertex 0 0 6.7
    endloop
  endfacet
  facet normal 0 -1 -0
    outer loop
      vertex 10.2 0 6.7
      vertex 0 0 0
      vertex 10.2 0 0
    endloop
  endfacet
  facet normal 0 1 -0
    outer loop
      vertex 28.4 28.4 0
      vertex 18.2 28.4 6.7
      vertex 28.4 28.4 6.7
    endloop
  endfacet
  facet normal 0 1 0
    outer loop
      vertex 18.2 28.4 6.7
      vertex 28.4 28.4 0
      vertex 18.2 28.4 0
    endloop
  endfacet
  facet normal 0 1 -0
    outer loop
      vertex 10.2 28.4 0
      vertex 0 28.4 6.7
      vertex 10.2 28.4 6.7
    endloop
  endfacet
  facet normal 0 1 0
    outer loop
      vertex 0 28.4 6.7
      vertex 10.2 28.4 0
      vertex 0 28.4 0
    endloop
  endfacet
  facet normal 1 0 0
    outer loop
      vertex 1.2 26.9 6.7
      vertex 1.2 6.2 3.4
      vertex 1.2 26.9 1
    endloop
  endfacet
  facet normal 1 -0 0
    outer loop
      vertex 1.2 1.2 6.7
      vertex 1.2 6.2 3.4
      vertex 1.2 26.9 6.7
    endloop
  endfacet
  facet normal 1 0 0
    outer loop
      vertex 1.2 1.2 1
      vertex 1.2 4.2 3.4
      vertex 1.2 1.2 6.7
    endloop
  endfacet
  facet normal 1 0 0
    outer loop
      vertex 1.2 6.2 3.4
      vertex 1.2 1.2 6.7
      vertex 1.2 4.2 3.4
    endloop
  endfacet
  facet normal 1 -0 0
    outer loop
      vertex 1.2 6.2 2.6
      vertex 1.2 26.9 1
      vertex 1.2 6.2 3.4
    endloop
  endfacet
  facet normal 1 0 0
    outer loop
      vertex 1.2 1.2 1
      vertex 1.2 6.2 2.6
      vertex 1.2 4.2 2.6
    endloop
  endfacet
  facet normal 1 0 0
    outer loop
      vertex 1.2 6.2 2.6
      vertex 1.2 1.2 1
      vertex 1.2 26.9 1
    endloop
  endfacet
  facet normal 1 0 0
    outer loop
      vertex 1.2 4.2 3.4
      vertex 1.2 1.2 1
      vertex 1.2 4.2 2.6
    endloop
  endfacet
  facet normal -1 0 0
    outer loop
      vertex 26.9 6.2 3.4
      vertex 26.9 26.9 1
      vertex 26.9 6.2 2.6
    endloop
  endfacet
  facet normal -1 0 0
    outer loop
      vertex 26.9 1.2 1
      vertex 26.9 6.2 2.6
      vertex 26.9 26.9 1
    endloop
  endfacet
  facet normal -1 -0 0
    outer loop
      vertex 26.9 4.2 2.6
      vertex 26.9 1.2 1
      vertex 26.9 4.2 3.4
    endloop
  endfacet
  facet normal -1 -0 0
    outer loop
      vertex 26.9 6.2 2.6
      vertex 26.9 1.2 1
      vertex 26.9 4.2 2.6
    endloop
  endfacet
  facet normal -1 0 0
    outer loop
      vertex 26.9 26.9 1
      vertex 26.9 6.2 3.4
      vertex 26.9 26.9 6.7
    endloop
  endfacet
  facet normal -1 0 0
    outer loop
      vertex 26.9 1.2 6.7
      vertex 26.9 6.2 3.4
      vertex 26.9 4.2 3.4
    endloop
  endfacet
  facet normal -1 0 0
    outer loop
      vertex 26.9 6.2 3.4
      vertex 26.9 1.2 6.7
      vertex 26.9 26.9 6.7
    endloop
  endfacet
  facet normal -1 0 0
    outer loop
      vertex 26.9 1.2 6.7
      vertex 26.9 4.2 3.4
      vertex 26.9 1.2 1
    endloop
  endfacet
  facet normal 0 -1 0
    outer loop
      vertex 1.2 26.9 1
      vertex 26.9 26.9 6.7
      vertex 1.2 26.9 6.7
    endloop
  endfacet
  facet normal 0 -1 -0
    outer loop
      vertex 26.9 26.9 6.7
      vertex 1.2 26.9 1
      vertex 26.9 26.9 1
    endloop
  endfacet
  facet normal 0 0 1
    outer loop
      vertex 26.9 26.9 1
      vertex 18.2 1.3 1
      vertex 26.9 1.2 1
    endloop
  endfacet
  facet normal 0 0 1
    outer loop
      vertex 26.9 26.9 1
      vertex 10.2 1.3 1
      vertex 18.2 1.3 1
    endloop
  endfacet
  facet normal -0 0 1
    outer loop
      vertex 1.2 26.9 1
      vertex 10.2 1.3 1
      vertex 26.9 26.9 1
    endloop
  endfacet
  facet normal 0 0 1
    outer loop
      vertex 1.2 1.2 1
      vertex 10.2 1.3 1
      vertex 1.2 26.9 1
    endloop
  endfacet
  facet normal 0 0 1
    outer loop
      vertex 10.2 1.3 1
      vertex 1.2 1.2 1
      vertex 10.2 1.2 1
    endloop
  endfacet
  facet normal 0 0 1
    outer loop
      vertex 26.9 1.2 1
      vertex 18.2 1.3 1
      vertex 18.2 1.2 1
    endloop
  endfacet
  facet normal 0 1 -0
    outer loop
      vertex 10.2 1.2 1
      vertex 1.2 1.2 6.7
      vertex 10.2 1.2 6.7
    endloop
  endfacet
  facet normal 0 1 0
    outer loop
      vertex 1.2 1.2 6.7
      vertex 10.2 1.2 1
      vertex 1.2 1.2 1
    endloop
  endfacet
  facet normal 0 1 -0
    outer loop
      vertex 26.9 1.2 1
      vertex 18.2 1.2 6.7
      vertex 26.9 1.2 6.7
    endloop
  endfacet
  facet normal 0 1 0
    outer loop
      vertex 18.2 1.2 6.7
      vertex 26.9 1.2 1
      vertex 18.2 1.2 1
    endloop
  endfacet
  facet normal -0 0 1
    outer loop
      vertex 1.2 6.2 3.4
      vertex 2 4.2 3.4
      vertex 2 6.2 3.4
    endloop
  endfacet
  facet normal 0 0 1
    outer loop
      vertex 2 4.2 3.4
      vertex 1.2 6.2 3.4
      vertex 1.2 4.2 3.4
    endloop
  endfacet
  facet normal 1 -0 0
    outer loop
      vertex 2 4.2 3.4
      vertex 2 6.2 2.6
      vertex 2 6.2 3.4
    endloop
  endfacet
  facet normal 1 0 0
    outer loop
      vertex 2 6.2 2.6
      vertex 2 4.2 3.4
      vertex 2 4.2 2.6
    endloop
  endfacet
  facet normal 0 0 -1
    outer loop
      vertex 1.2 4.2 2.6
      vertex 2 6.2 2.6
      vertex 2 4.2 2.6
    endloop
  endfacet
  facet normal -0 0 -1
    outer loop
      vertex 2 6.2 2.6
      vertex 1.2 4.2 2.6
      vertex 1.2 6.2 2.6
    endloop
  endfacet
  facet normal 0 -1 0
    outer loop
      vertex 1.2 4.2 2.6
      vertex 2 4.2 3.4
      vertex 1.2 4.2 3.4
    endloop
  endfacet
  facet normal 0 -1 -0
    outer loop
      vertex 2 4.2 3.4
      vertex 1.2 4.2 2.6
      vertex 2 4.2 2.6
    endloop
  endfacet
  facet normal 0 1 -0
    outer loop
      vertex 2 6.2 2.6
      vertex 1.2 6.2 3.4
      vertex 2 6.2 3.4
    endloop
  endfacet
  facet normal 0 1 0
    outer loop
      vertex 1.2 6.2 3.4
      vertex 2 6.2 2.6
      vertex 1.2 6.2 2.6
    endloop
  endfacet
  facet normal -1 0 0
    outer loop
      vertex 26.4 4.2 2.6
      vertex 26.4 6.2 3.4
      vertex 26.4 6.2 2.6
    endloop
  endfacet
  facet normal -1 -0 0
    outer loop
      vertex 26.4 6.2 3.4
      vertex 26.4 4.2 2.6
      vertex 26.4 4.2 3.4
    endloop
  endfacet
  facet normal -0 0 1
    outer loop
      vertex 26.4 6.2 3.4
      vertex 26.9 4.2 3.4
      vertex 26.9 6.2 3.4
    endloop
  endfacet
  facet normal 0 0 1
    outer loop
      vertex 26.9 4.2 3.4
      vertex 26.4 6.2 3.4
      vertex 26.4 4.2 3.4
    endloop
  endfacet
  facet normal 0 0 -1
    outer loop
      vertex 26.4 4.2 2.6
      vertex 26.9 6.2 2.6
      vertex 26.9 4.2 2.6
    endloop
  endfacet
  facet normal -0 0 -1
    outer loop
      vertex 26.9 6.2 2.6
      vertex 26.4 4.2 2.6
      vertex 26.4 6.2 2.6
    endloop
  endfacet
  facet normal 0 -1 0
    outer loop
      vertex 26.4 4.2 2.6
      vertex 26.9 4.2 3.4
      vertex 26.4 4.2 3.4
    endloop
  endfacet
  facet normal 0 -1 -0
    outer loop
      vertex 26.9 4.2 3.4
      vertex 26.4 4.2 2.6
      vertex 26.9 4.2 2.6
    endloop
  endfacet
  facet normal 0 1 -0
    outer loop
      vertex 26.9 6.2 2.6
      vertex 26.4 6.2 3.4
      vertex 26.9 6.2 3.4
    endloop
  endfacet
  facet normal 0 1 0
    outer loop
      vertex 26.4 6.2 3.4
      vertex 26.9 6.2 2.6
      vertex 26.4 6.2 2.6
    endloop
  endfacet
  facet normal -1 0 0
    outer loop
      vertex 10.2 -0.0999994 0
      vertex 10.2 0 6.7
      vertex 10.2 0 0
    endloop
  endfacet
  facet normal -1 -0 0
    outer loop
      vertex 10.2 0 6.7
      vertex 10.2 -0.0999994 0
      vertex 10.2 -0.0999994 6.7
    endloop
  endfacet
  facet normal -1 0 0
    outer loop
      vertex 10.2 1.2 1
      vertex 10.2 1.3 6.7
      vertex 10.2 1.3 1
    endloop
  endfacet
  facet normal -1 -0 0
    outer loop
      vertex 10.2 1.3 6.7
      vertex 10.2 1.2 1
      vertex 10.2 1.2 6.7
    endloop
  endfacet
  facet normal 1 -0 0
    outer loop
      vertex 18.2 -0.0999994 6.7
      vertex 18.2 0 0
      vertex 18.2 0 6.7
    endloop
  endfacet
  facet normal 1 0 0
    outer loop
      vertex 18.2 0 0
      vertex 18.2 -0.0999994 6.7
      vertex 18.2 -0.0999994 0
    endloop
  endfacet
  facet normal 1 -0 0
    outer loop
      vertex 18.2 1.2 6.7
      vertex 18.2 1.3 1
      vertex 18.2 1.3 6.7
    endloop
  endfacet
  facet normal 1 0 0
    outer loop
      vertex 18.2 1.3 1
      vertex 18.2 1.2 6.7
      vertex 18.2 1.2 1
    endloop
  endfacet
  facet normal 0 -1 0
    outer loop
      vertex 10.2 -0.0999994 0
      vertex 18.2 -0.0999994 6.7
      vertex 10.2 -0.0999994 6.7
    endloop
  endfacet
  facet normal 0 -1 -0
    outer loop
      vertex 18.2 -0.0999994 6.7
      vertex 10.2 -0.0999994 0
      vertex 18.2 -0.0999994 0
    endloop
  endfacet
  facet normal 0 1 -0
    outer loop
      vertex 18.2 1.3 1
      vertex 10.2 1.3 6.7
      vertex 18.2 1.3 6.7
    endloop
  endfacet
  facet normal 0 1 0
    outer loop
      vertex 10.2 1.3 6.7
      vertex 18.2 1.3 1
      vertex 10.2 1.3 1
    endloop
  endfacet
  facet normal -1 0 0
    outer loop
      vertex 10.2 28.4 0
      vertex 10.2 28.5 6.7
      vertex 10.2 28.5 0
    endloop
  endfacet
  facet normal -1 -0 0
    outer loop
      vertex 10.2 28.5 6.7
      vertex 10.2 28.4 0
      vertex 10.2 28.4 6.7
    endloop
  endfacet
  facet normal 1 -0 0
    outer loop
      vertex 18.2 28.4 6.7
      vertex 18.2 28.5 0
      vertex 18.2 28.5 6.7
    endloop
  endfacet
  facet normal 1 0 0
    outer loop
      vertex 18.2 28.5 0
      vertex 18.2 28.4 6.7
      vertex 18.2 28.4 0
    endloop
  endfacet
  facet normal 0 1 -0
    outer loop
      vertex 18.2 28.5 0
      vertex 10.2 28.5 6.7
      vertex 18.2 28.5 6.7
    endloop
  endfacet
  facet normal 0 1 0
    outer loop
      vertex 10.2 28.5 6.7
      vertex 18.2 28.5 0
      vertex 10.2 28.5 0
    endloop
  endfacet
endsolid OpenSCAD_Model
