solid OpenSCAD_Model
  facet normal -1 0 0
    outer loop
      vertex 49.9 106.4 1.5
      vertex 49.9 105.6 10.8
      vertex 49.9 106.4 11.6
    endloop
  endfacet
  facet normal -1 0 0
    outer loop
      vertex 49.9 105.4 1.5
      vertex 49.9 105.6 10.8
      vertex 49.9 106.4 1.5
    endloop
  endfacet
  facet normal -1 0 0
    outer loop
      vertex 49.9 102.4 10.8
      vertex 49.9 105.4 1.5
      vertex 49.9 102.4 1.5
    endloop
  endfacet
  facet normal -1 0 0
    outer loop
      vertex 49.9 105.4 1.5
      vertex 49.9 102.4 10.8
      vertex 49.9 105.6 10.8
    endloop
  endfacet
  facet normal -1 -0 0
    outer loop
      vertex 49.9 106.4 11.6
      vertex 49.9 105.6 10.8
      vertex 49.9 105.6 11.6
    endloop
  endfacet
  facet normal -0 0 1
    outer loop
      vertex 49.9 105.6 10.8
      vertex 51.9 102.4 10.8
      vertex 51.9 105.6 10.8
    endloop
  endfacet
  facet normal 0 0 1
    outer loop
      vertex 51.9 102.4 10.8
      vertex 49.9 105.6 10.8
      vertex 49.9 102.4 10.8
    endloop
  endfacet
  facet normal 1 0 0
    outer loop
      vertex 51.9 105.6 10.8
      vertex 51.9 106.4 11.6
      vertex 51.9 105.6 11.6
    endloop
  endfacet
  facet normal 1 0 0
    outer loop
      vertex 51.9 106.4 11.6
      vertex 51.9 105.6 10.8
      vertex 51.9 106.4 1.5
    endloop
  endfacet
  facet normal 1 0 0
    outer loop
      vertex 51.9 105.6 10.8
      vertex 51.9 105.4 1.5
      vertex 51.9 106.4 1.5
    endloop
  endfacet
  facet normal 1 -0 0
    outer loop
      vertex 51.9 102.4 10.8
      vertex 51.9 105.4 1.5
      vertex 51.9 105.6 10.8
    endloop
  endfacet
  facet normal 1 0 0
    outer loop
      vertex 51.9 105.4 1.5
      vertex 51.9 102.4 10.8
      vertex 51.9 102.4 1.5
    endloop
  endfacet
  facet normal -0 0 1
    outer loop
      vertex 4 74.4 1.5
      vertex 5 73.4 1.5
      vertex 5.5 74.4 1.5
    endloop
  endfacet
  facet normal 0 0 1
    outer loop
      vertex 5 73.4 1.5
      vertex 4 74.4 1.5
      vertex 3.8 73.4 1.5
    endloop
  endfacet
  facet normal -0 0 1
    outer loop
      vertex 4 101.6 1.5
      vertex 5.5 75.9 1.5
      vertex 5.5 101.6 1.5
    endloop
  endfacet
  facet normal 0 0 1
    outer loop
      vertex 5.5 75.9 1.5
      vertex 4 101.6 1.5
      vertex 4 75.9 1.5
    endloop
  endfacet
  facet normal 0 0 1
    outer loop
      vertex 12.85 76.4 1.5
      vertex 5.5 74.4 1.5
      vertex 12.85 73.4 1.5
    endloop
  endfacet
  facet normal 0 0 1
    outer loop
      vertex 5 73.4 1.5
      vertex 12.85 73.4 1.5
      vertex 5.5 74.4 1.5
    endloop
  endfacet
  facet normal 0 0 1
    outer loop
      vertex 12.85 73.4 1.5
      vertex 5 73.4 1.5
      vertex 10 49 1.5
    endloop
  endfacet
  facet normal 0 0 1
    outer loop
      vertex 5 48 1.5
      vertex 10 49 1.5
      vertex 5 73.4 1.5
    endloop
  endfacet
  facet normal 0 0 1
    outer loop
      vertex 10 49 1.5
      vertex 5 48 1.5
      vertex 10 48 1.5
    endloop
  endfacet
  facet normal 0 0 1
    outer loop
      vertex 10 47 1.5
      vertex 5 47 1.5
      vertex 10 46 1.5
    endloop
  endfacet
  facet normal 0 0 1
    outer loop
      vertex 22.7 73.4 1.5
      vertex 14.85 73.4 1.5
      vertex 22.7 48 1.5
    endloop
  endfacet
  facet normal 0 0 1
    outer loop
      vertex 12 49 1.5
      vertex 14.85 73.4 1.5
      vertex 12.85 73.4 1.5
    endloop
  endfacet
  facet normal 0 0 1
    outer loop
      vertex 14.85 73.4 1.5
      vertex 12 49 1.5
      vertex 22.7 48 1.5
    endloop
  endfacet
  facet normal 0 0 1
    outer loop
      vertex 22.7 48 1.5
      vertex 12 49 1.5
      vertex 12 48 1.5
    endloop
  endfacet
  facet normal -0 0 1
    outer loop
      vertex 3.8 48 1.5
      vertex 5 47 1.5
      vertex 5 48 1.5
    endloop
  endfacet
  facet normal 0 0 1
    outer loop
      vertex 3.8 46 1.5
      vertex 5 47 1.5
      vertex 3.8 48 1.5
    endloop
  endfacet
  facet normal 0 0 1
    outer loop
      vertex 5 47 1.5
      vertex 3.8 46 1.5
      vertex 5 46 1.5
    endloop
  endfacet
  facet normal 0 0 1
    outer loop
      vertex 5 3 1.5
      vertex 3.8 3 1.5
      vertex 5 2 1.5
    endloop
  endfacet
  facet normal -0 0 1
    outer loop
      vertex 31.2 101.6 1.5
      vertex 32.7 75.9 1.5
      vertex 32.7 101.6 1.5
    endloop
  endfacet
  facet normal 0 0 1
    outer loop
      vertex 32.7 75.9 1.5
      vertex 31.2 101.6 1.5
      vertex 31.2 75.9 1.5
    endloop
  endfacet
  facet normal 0 0 1
    outer loop
      vertex 32.7 103.1 1.5
      vertex 34.7 103.4 1.5
      vertex 34.7 105.4 1.5
    endloop
  endfacet
  facet normal 0 0 1
    outer loop
      vertex 34.7 103.4 1.5
      vertex 32.7 103.1 1.5
      vertex 32.7 101.6 1.5
    endloop
  endfacet
  facet normal 0 0 1
    outer loop
      vertex 34.7 105.4 1.5
      vertex 31.2 103.1 1.5
      vertex 32.7 103.1 1.5
    endloop
  endfacet
  facet normal -0 0 1
    outer loop
      vertex 5.5 103.1 1.5
      vertex 31.2 101.6 1.5
      vertex 31.2 103.1 1.5
    endloop
  endfacet
  facet normal 0 0 1
    outer loop
      vertex 31.2 101.6 1.5
      vertex 14.85 76.4 1.5
      vertex 31.2 75.9 1.5
    endloop
  endfacet
  facet normal 0 0 1
    outer loop
      vertex 31.2 75.9 1.5
      vertex 23.9 73.4 1.5
      vertex 31.2 74.4 1.5
    endloop
  endfacet
  facet normal 0 0 1
    outer loop
      vertex 31.2 75.9 1.5
      vertex 14.85 76.4 1.5
      vertex 23.9 73.4 1.5
    endloop
  endfacet
  facet normal 0 0 1
    outer loop
      vertex 14.85 73.4 1.5
      vertex 22.7 73.4 1.5
      vertex 14.85 76.4 1.5
    endloop
  endfacet
  facet normal 0 0 1
    outer loop
      vertex 23.9 73.4 1.5
      vertex 14.85 76.4 1.5
      vertex 22.7 73.4 1.5
    endloop
  endfacet
  facet normal 0 0 1
    outer loop
      vertex 5.5 101.6 1.5
      vertex 31.2 101.6 1.5
      vertex 5.5 103.1 1.5
    endloop
  endfacet
  facet normal 0 0 1
    outer loop
      vertex 14.85 76.4 1.5
      vertex 5.5 101.6 1.5
      vertex 12.85 76.4 1.5
    endloop
  endfacet
  facet normal 0 0 1
    outer loop
      vertex 12.85 73.4 1.5
      vertex 10 49 1.5
      vertex 12 49 1.5
    endloop
  endfacet
  facet normal 0 0 1
    outer loop
      vertex 5.5 74.4 1.5
      vertex 12.85 76.4 1.5
      vertex 5.5 75.9 1.5
    endloop
  endfacet
  facet normal 0 0 1
    outer loop
      vertex 5.5 75.9 1.5
      vertex 12.85 76.4 1.5
      vertex 5.5 101.6 1.5
    endloop
  endfacet
  facet normal 0 0 1
    outer loop
      vertex 31.2 101.6 1.5
      vertex 5.5 101.6 1.5
      vertex 14.85 76.4 1.5
    endloop
  endfacet
  facet normal 0 0 1
    outer loop
      vertex 34.7 105.4 1.5
      vertex 5.5 103.1 1.5
      vertex 31.2 103.1 1.5
    endloop
  endfacet
  facet normal -0 0 1
    outer loop
      vertex 0 105.4 1.5
      vertex 5.5 103.1 1.5
      vertex 34.7 105.4 1.5
    endloop
  endfacet
  facet normal 0 0 1
    outer loop
      vertex 0 105.4 1.5
      vertex 4 101.6 1.5
      vertex 4 103.1 1.5
    endloop
  endfacet
  facet normal 0 0 1
    outer loop
      vertex 4 101.6 1.5
      vertex 0 105.4 1.5
      vertex 4 75.9 1.5
    endloop
  endfacet
  facet normal 0 -0 1
    outer loop
      vertex 3.8 73.4 1.5
      vertex 4 75.9 1.5
      vertex 0 105.4 1.5
    endloop
  endfacet
  facet normal 0 0 1
    outer loop
      vertex 0 105.4 1.5
      vertex 3.8 48 1.5
      vertex 3.8 73.4 1.5
    endloop
  endfacet
  facet normal 0 0 1
    outer loop
      vertex 0 0 1.5
      vertex 3.8 48 1.5
      vertex 0 105.4 1.5
    endloop
  endfacet
  facet normal 0 0 1
    outer loop
      vertex 3.8 48 1.5
      vertex 0 0 1.5
      vertex 3.8 46 1.5
    endloop
  endfacet
  facet normal 0 0 1
    outer loop
      vertex 4 75.9 1.5
      vertex 3.8 73.4 1.5
      vertex 4 74.4 1.5
    endloop
  endfacet
  facet normal 0 0 1
    outer loop
      vertex 5.5 103.1 1.5
      vertex 0 105.4 1.5
      vertex 4 103.1 1.5
    endloop
  endfacet
  facet normal 0 0 1
    outer loop
      vertex 45.4 102.4 1.5
      vertex 38.8 46 1.5
      vertex 40 46 1.5
    endloop
  endfacet
  facet normal 0 0 1
    outer loop
      vertex 38.8 46 1.5
      vertex 38.5 3 1.5
      vertex 38.8 3 1.5
    endloop
  endfacet
  facet normal 0 0 1
    outer loop
      vertex 45.4 102.4 1.5
      vertex 34.7 103.4 1.5
      vertex 33.5 49 1.5
    endloop
  endfacet
  facet normal 0 0 1
    outer loop
      vertex 45.4 102.4 1.5
      vertex 33.5 49 1.5
      vertex 38.8 46 1.5
    endloop
  endfacet
  facet normal 0 0 1
    outer loop
      vertex 33.5 46 1.5
      vertex 38.8 46 1.5
      vertex 33.5 49 1.5
    endloop
  endfacet
  facet normal 0 0 1
    outer loop
      vertex 38.8 46 1.5
      vertex 33.5 46 1.5
      vertex 38.5 3 1.5
    endloop
  endfacet
  facet normal -0 0 1
    outer loop
      vertex 31.5 46 1.5
      vertex 38.5 3 1.5
      vertex 33.5 46 1.5
    endloop
  endfacet
  facet normal 0 0 1
    outer loop
      vertex 23.9 48 1.5
      vertex 31.5 49 1.5
      vertex 23.9 73.4 1.5
    endloop
  endfacet
  facet normal 0 0 1
    outer loop
      vertex 31.5 49 1.5
      vertex 23.9 48 1.5
      vertex 31.5 46 1.5
    endloop
  endfacet
  facet normal -0 0 1
    outer loop
      vertex 22.7 47 1.5
      vertex 31.5 46 1.5
      vertex 23.9 48 1.5
    endloop
  endfacet
  facet normal 0 0 1
    outer loop
      vertex 22.7 47 1.5
      vertex 23.9 48 1.5
      vertex 22.7 48 1.5
    endloop
  endfacet
  facet normal 0 0 1
    outer loop
      vertex 31.5 46 1.5
      vertex 22.7 47 1.5
      vertex 38.5 3 1.5
    endloop
  endfacet
  facet normal 0 0 1
    outer loop
      vertex 12 46 1.5
      vertex 22.7 47 1.5
      vertex 12 47 1.5
    endloop
  endfacet
  facet normal 0 0 1
    outer loop
      vertex 5 3 1.5
      vertex 22.7 47 1.5
      vertex 12 46 1.5
    endloop
  endfacet
  facet normal 0 0 1
    outer loop
      vertex 5 3 1.5
      vertex 12 46 1.5
      vertex 10 46 1.5
    endloop
  endfacet
  facet normal 0 0 1
    outer loop
      vertex 5 46 1.5
      vertex 10 46 1.5
      vertex 5 47 1.5
    endloop
  endfacet
  facet normal 0 0 1
    outer loop
      vertex 5 3 1.5
      vertex 10 46 1.5
      vertex 5 46 1.5
    endloop
  endfacet
  facet normal 0 0 1
    outer loop
      vertex 22.7 47 1.5
      vertex 5 3 1.5
      vertex 38.5 3 1.5
    endloop
  endfacet
  facet normal 0 0 1
    outer loop
      vertex 34.7 103.4 1.5
      vertex 32.7 101.6 1.5
      vertex 32.7 75.9 1.5
    endloop
  endfacet
  facet normal 0 0 1
    outer loop
      vertex 34.7 103.4 1.5
      vertex 32.7 75.9 1.5
      vertex 32.7 74.4 1.5
    endloop
  endfacet
  facet normal 0 0 1
    outer loop
      vertex 34.7 103.4 1.5
      vertex 32.7 74.4 1.5
      vertex 33.5 49 1.5
    endloop
  endfacet
  facet normal 0 0 1
    outer loop
      vertex 32.7 74.4 1.5
      vertex 31.5 49 1.5
      vertex 33.5 49 1.5
    endloop
  endfacet
  facet normal -0 0 1
    outer loop
      vertex 23.9 73.4 1.5
      vertex 31.5 49 1.5
      vertex 31.2 74.4 1.5
    endloop
  endfacet
  facet normal -0 0 1
    outer loop
      vertex 31.2 74.4 1.5
      vertex 31.5 49 1.5
      vertex 32.7 74.4 1.5
    endloop
  endfacet
  facet normal 0 0 1
    outer loop
      vertex 49.9 105.4 1.5
      vertex 46.9 102.4 1.5
      vertex 49.9 102.4 1.5
    endloop
  endfacet
  facet normal 0 0 1
    outer loop
      vertex 49.9 105.4 1.5
      vertex 45.4 102.4 1.5
      vertex 46.9 102.4 1.5
    endloop
  endfacet
  facet normal -0 0 1
    outer loop
      vertex 40.7 103.4 1.5
      vertex 45.4 102.4 1.5
      vertex 40.7 105.4 1.5
    endloop
  endfacet
  facet normal -0 0 1
    outer loop
      vertex 40.7 105.4 1.5
      vertex 45.4 102.4 1.5
      vertex 49.9 105.4 1.5
    endloop
  endfacet
  facet normal 0 0 1
    outer loop
      vertex 65.4 105.4 1.5
      vertex 51.9 105.4 1.5
      vertex 65.4 102.4 1.5
    endloop
  endfacet
  facet normal 0 0 1
    outer loop
      vertex 72.2 42.4 1.5
      vertex 75.4 105.4 1.5
      vertex 72.2 102.4 1.5
    endloop
  endfacet
  facet normal 0 0 1
    outer loop
      vertex 75.4 105.4 1.5
      vertex 70.7 102.4 1.5
      vertex 72.2 102.4 1.5
    endloop
  endfacet
  facet normal 0 0 1
    outer loop
      vertex 70.7 102.4 1.5
      vertex 70.4 42.4 1.5
      vertex 70.7 42.4 1.5
    endloop
  endfacet
  facet normal -0 0 1
    outer loop
      vertex 67.4 105.4 1.5
      vertex 70.7 102.4 1.5
      vertex 75.4 105.4 1.5
    endloop
  endfacet
  facet normal 0 0 1
    outer loop
      vertex 67.4 102.4 1.5
      vertex 70.7 102.4 1.5
      vertex 67.4 105.4 1.5
    endloop
  endfacet
  facet normal 0 0 1
    outer loop
      vertex 70.7 102.4 1.5
      vertex 67.4 102.4 1.5
      vertex 70.4 42.4 1.5
    endloop
  endfacet
  facet normal -0 0 1
    outer loop
      vertex 65.4 102.4 1.5
      vertex 70.4 42.4 1.5
      vertex 67.4 102.4 1.5
    endloop
  endfacet
  facet normal 0 0 1
    outer loop
      vertex 51.9 102.4 1.5
      vertex 65.4 102.4 1.5
      vertex 51.9 105.4 1.5
    endloop
  endfacet
  facet normal 0 0 1
    outer loop
      vertex 65.4 102.4 1.5
      vertex 51.9 102.4 1.5
      vertex 70.4 42.4 1.5
    endloop
  endfacet
  facet normal 0 0 1
    outer loop
      vertex 46.9 42.4 1.5
      vertex 51.9 102.4 1.5
      vertex 49.9 102.4 1.5
    endloop
  endfacet
  facet normal 0 0 1
    outer loop
      vertex 46.9 42.4 1.5
      vertex 49.9 102.4 1.5
      vertex 46.9 102.4 1.5
    endloop
  endfacet
  facet normal 0 0 1
    outer loop
      vertex 51.9 102.4 1.5
      vertex 46.9 42.4 1.5
      vertex 70.4 42.4 1.5
    endloop
  endfacet
  facet normal 0 0 1
    outer loop
      vertex 75.4 105.4 1.5
      vertex 72.2 42.4 1.5
      vertex 75.4 0 1.5
    endloop
  endfacet
  facet normal 0 0 1
    outer loop
      vertex 70.4 40.9 1.5
      vertex 72.2 42.4 1.5
      vertex 70.7 42.4 1.5
    endloop
  endfacet
  facet normal 0 0 1
    outer loop
      vertex 70.4 40.9 1.5
      vertex 70.7 42.4 1.5
      vertex 70.4 42.4 1.5
    endloop
  endfacet
  facet normal 0 0 1
    outer loop
      vertex 72.2 42.4 1.5
      vertex 70.4 40.9 1.5
      vertex 75.4 0 1.5
    endloop
  endfacet
  facet normal 0 0 1
    outer loop
      vertex 40 3 1.5
      vertex 70.4 40.9 1.5
      vertex 46.9 40.9 1.5
    endloop
  endfacet
  facet normal 0 0 1
    outer loop
      vertex 40 46 1.5
      vertex 46.9 40.9 1.5
      vertex 45.4 42.4 1.5
    endloop
  endfacet
  facet normal -0 0 1
    outer loop
      vertex 34.7 103.4 1.5
      vertex 45.4 102.4 1.5
      vertex 40.7 103.4 1.5
    endloop
  endfacet
  facet normal 0 0 1
    outer loop
      vertex 45.4 102.4 1.5
      vertex 40 46 1.5
      vertex 45.4 42.4 1.5
    endloop
  endfacet
  facet normal 0 0 1
    outer loop
      vertex 46.9 40.9 1.5
      vertex 40 46 1.5
      vertex 40 3 1.5
    endloop
  endfacet
  facet normal 0 0 1
    outer loop
      vertex 70.4 40.9 1.5
      vertex 40 3 1.5
      vertex 75.4 0 1.5
    endloop
  endfacet
  facet normal 0 0 1
    outer loop
      vertex 38.5 2 1.5
      vertex 40 3 1.5
      vertex 38.8 3 1.5
    endloop
  endfacet
  facet normal 0 0 1
    outer loop
      vertex 38.5 2 1.5
      vertex 38.8 3 1.5
      vertex 38.5 3 1.5
    endloop
  endfacet
  facet normal 0 0 1
    outer loop
      vertex 40 3 1.5
      vertex 38.5 2 1.5
      vertex 75.4 0 1.5
    endloop
  endfacet
  facet normal 0 0 1
    outer loop
      vertex 0 0 1.5
      vertex 38.5 2 1.5
      vertex 5 2 1.5
    endloop
  endfacet
  facet normal 0 0 1
    outer loop
      vertex 38.5 2 1.5
      vertex 0 0 1.5
      vertex 75.4 0 1.5
    endloop
  endfacet
  facet normal 0 0 1
    outer loop
      vertex 3.8 3 1.5
      vertex 0 0 1.5
      vertex 5 2 1.5
    endloop
  endfacet
  facet normal 0 0 1
    outer loop
      vertex 3.8 46 1.5
      vertex 0 0 1.5
      vertex 3.8 3 1.5
    endloop
  endfacet
  facet normal 0 0 1
    outer loop
      vertex 46.9 42.4 1.5
      vertex 45.4 42.4 1.5
      vertex 46.9 40.9 1.5
    endloop
  endfacet
  facet normal 0 0 -1
    outer loop
      vertex 49.9 105.4 1.5
      vertex 51.9 106.4 1.5
      vertex 51.9 105.4 1.5
    endloop
  endfacet
  facet normal -0 0 -1
    outer loop
      vertex 51.9 106.4 1.5
      vertex 49.9 105.4 1.5
      vertex 49.9 106.4 1.5
    endloop
  endfacet
  facet normal 0 0 -1
    outer loop
      vertex 65.4 105.4 1.5
      vertex 67.4 106.4 1.5
      vertex 67.4 105.4 1.5
    endloop
  endfacet
  facet normal -0 0 -1
    outer loop
      vertex 67.4 106.4 1.5
      vertex 65.4 105.4 1.5
      vertex 65.4 106.4 1.5
    endloop
  endfacet
  facet normal 0 -1 0
    outer loop
      vertex 49.9 102.4 1.5
      vertex 51.9 102.4 10.8
      vertex 49.9 102.4 10.8
    endloop
  endfacet
  facet normal 0 -1 -0
    outer loop
      vertex 51.9 102.4 10.8
      vertex 49.9 102.4 1.5
      vertex 51.9 102.4 1.5
    endloop
  endfacet
  facet normal 0 1 -0
    outer loop
      vertex 51.9 106.4 1.5
      vertex 49.9 106.4 11.6
      vertex 51.9 106.4 11.6
    endloop
  endfacet
  facet normal 0 1 0
    outer loop
      vertex 49.9 106.4 11.6
      vertex 51.9 106.4 1.5
      vertex 49.9 106.4 1.5
    endloop
  endfacet
  facet normal -0 0 1
    outer loop
      vertex 49.9 106.4 11.6
      vertex 51.9 105.6 11.6
      vertex 51.9 106.4 11.6
    endloop
  endfacet
  facet normal 0 0 1
    outer loop
      vertex 51.9 105.6 11.6
      vertex 49.9 106.4 11.6
      vertex 49.9 105.6 11.6
    endloop
  endfacet
  facet normal 0 -1 0
    outer loop
      vertex 49.9 105.6 10.8
      vertex 51.9 105.6 11.6
      vertex 49.9 105.6 11.6
    endloop
  endfacet
  facet normal 0 -1 -0
    outer loop
      vertex 51.9 105.6 11.6
      vertex 49.9 105.6 10.8
      vertex 51.9 105.6 10.8
    endloop
  endfacet
  facet normal -1 0 0
    outer loop
      vertex 65.4 106.4 1.5
      vertex 65.4 105.6 10.8
      vertex 65.4 106.4 11.6
    endloop
  endfacet
  facet normal -1 0 0
    outer loop
      vertex 65.4 105.4 1.5
      vertex 65.4 105.6 10.8
      vertex 65.4 106.4 1.5
    endloop
  endfacet
  facet normal -1 0 0
    outer loop
      vertex 65.4 102.4 10.8
      vertex 65.4 105.4 1.5
      vertex 65.4 102.4 1.5
    endloop
  endfacet
  facet normal -1 0 0
    outer loop
      vertex 65.4 105.4 1.5
      vertex 65.4 102.4 10.8
      vertex 65.4 105.6 10.8
    endloop
  endfacet
  facet normal -1 -0 0
    outer loop
      vertex 65.4 106.4 11.6
      vertex 65.4 105.6 10.8
      vertex 65.4 105.6 11.6
    endloop
  endfacet
  facet normal -0 0 1
    outer loop
      vertex 65.4 105.6 10.8
      vertex 67.4 102.4 10.8
      vertex 67.4 105.6 10.8
    endloop
  endfacet
  facet normal 0 0 1
    outer loop
      vertex 67.4 102.4 10.8
      vertex 65.4 105.6 10.8
      vertex 65.4 102.4 10.8
    endloop
  endfacet
  facet normal 1 0 0
    outer loop
      vertex 67.4 105.6 10.8
      vertex 67.4 106.4 11.6
      vertex 67.4 105.6 11.6
    endloop
  endfacet
  facet normal 1 0 0
    outer loop
      vertex 67.4 106.4 11.6
      vertex 67.4 105.6 10.8
      vertex 67.4 106.4 1.5
    endloop
  endfacet
  facet normal 1 0 0
    outer loop
      vertex 67.4 105.6 10.8
      vertex 67.4 105.4 1.5
      vertex 67.4 106.4 1.5
    endloop
  endfacet
  facet normal 1 -0 0
    outer loop
      vertex 67.4 102.4 10.8
      vertex 67.4 105.4 1.5
      vertex 67.4 105.6 10.8
    endloop
  endfacet
  facet normal 1 0 0
    outer loop
      vertex 67.4 105.4 1.5
      vertex 67.4 102.4 10.8
      vertex 67.4 102.4 1.5
    endloop
  endfacet
  facet normal 0 -1 0
    outer loop
      vertex 65.4 102.4 1.5
      vertex 67.4 102.4 10.8
      vertex 65.4 102.4 10.8
    endloop
  endfacet
  facet normal 0 -1 -0
    outer loop
      vertex 67.4 102.4 10.8
      vertex 65.4 102.4 1.5
      vertex 67.4 102.4 1.5
    endloop
  endfacet
  facet normal 0 1 -0
    outer loop
      vertex 67.4 106.4 1.5
      vertex 65.4 106.4 11.6
      vertex 67.4 106.4 11.6
    endloop
  endfacet
  facet normal 0 1 0
    outer loop
      vertex 65.4 106.4 11.6
      vertex 67.4 106.4 1.5
      vertex 65.4 106.4 1.5
    endloop
  endfacet
  facet normal -0 0 1
    outer loop
      vertex 65.4 106.4 11.6
      vertex 67.4 105.6 11.6
      vertex 67.4 106.4 11.6
    endloop
  endfacet
  facet normal 0 0 1
    outer loop
      vertex 67.4 105.6 11.6
      vertex 65.4 106.4 11.6
      vertex 65.4 105.6 11.6
    endloop
  endfacet
  facet normal 0 -1 0
    outer loop
      vertex 65.4 105.6 10.8
      vertex 67.4 105.6 11.6
      vertex 65.4 105.6 11.6
    endloop
  endfacet
  facet normal 0 -1 -0
    outer loop
      vertex 67.4 105.6 11.6
      vertex 65.4 105.6 10.8
      vertex 67.4 105.6 10.8
    endloop
  endfacet
  facet normal -1 0 0
    outer loop
      vertex 10 46 1.5
      vertex 10 47 7.3
      vertex 10 47 1.5
    endloop
  endfacet
  facet normal -1 -0 0
    outer loop
      vertex 10 47 7.3
      vertex 10 46 1.5
      vertex 10 46 7.3
    endloop
  endfacet
  facet normal -1 0 0
    outer loop
      vertex 10 49 1.5
      vertex 10 48.2 7.3
      vertex 10 49 8.1
    endloop
  endfacet
  facet normal -1 0 0
    outer loop
      vertex 10 48 1.5
      vertex 10 48.2 7.3
      vertex 10 49 1.5
    endloop
  endfacet
  facet normal -1 -0 0
    outer loop
      vertex 10 48.2 7.3
      vertex 10 48 1.5
      vertex 10 48 7.3
    endloop
  endfacet
  facet normal -1 -0 0
    outer loop
      vertex 10 49 8.1
      vertex 10 48.2 7.3
      vertex 10 48.2 8.1
    endloop
  endfacet
  facet normal -0 0 1
    outer loop
      vertex 10 47 7.3
      vertex 12 46 7.3
      vertex 12 47 7.3
    endloop
  endfacet
  facet normal 0 0 1
    outer loop
      vertex 12 46 7.3
      vertex 10 47 7.3
      vertex 10 46 7.3
    endloop
  endfacet
  facet normal -0 0 1
    outer loop
      vertex 10 48.2 7.3
      vertex 12 48 7.3
      vertex 12 48.2 7.3
    endloop
  endfacet
  facet normal 0 0 1
    outer loop
      vertex 12 48 7.3
      vertex 10 48.2 7.3
      vertex 10 48 7.3
    endloop
  endfacet
  facet normal 1 -0 0
    outer loop
      vertex 12 46 7.3
      vertex 12 47 1.5
      vertex 12 47 7.3
    endloop
  endfacet
  facet normal 1 0 0
    outer loop
      vertex 12 47 1.5
      vertex 12 46 7.3
      vertex 12 46 1.5
    endloop
  endfacet
  facet normal 1 0 0
    outer loop
      vertex 12 48.2 7.3
      vertex 12 49 8.1
      vertex 12 48.2 8.1
    endloop
  endfacet
  facet normal 1 0 0
    outer loop
      vertex 12 49 8.1
      vertex 12 48.2 7.3
      vertex 12 49 1.5
    endloop
  endfacet
  facet normal 1 0 0
    outer loop
      vertex 12 48 1.5
      vertex 12 48.2 7.3
      vertex 12 48 7.3
    endloop
  endfacet
  facet normal 1 0 0
    outer loop
      vertex 12 48.2 7.3
      vertex 12 48 1.5
      vertex 12 49 1.5
    endloop
  endfacet
  facet normal 0 -1 0
    outer loop
      vertex 10 46 1.5
      vertex 12 46 7.3
      vertex 10 46 7.3
    endloop
  endfacet
  facet normal 0 -1 -0
    outer loop
      vertex 12 46 7.3
      vertex 10 46 1.5
      vertex 12 46 1.5
    endloop
  endfacet
  facet normal 0 1 -0
    outer loop
      vertex 12 49 1.5
      vertex 10 49 8.1
      vertex 12 49 8.1
    endloop
  endfacet
  facet normal 0 1 0
    outer loop
      vertex 10 49 8.1
      vertex 12 49 1.5
      vertex 10 49 1.5
    endloop
  endfacet
  facet normal -0 0 1
    outer loop
      vertex 10 49 8.1
      vertex 12 48.2 8.1
      vertex 12 49 8.1
    endloop
  endfacet
  facet normal 0 0 1
    outer loop
      vertex 12 48.2 8.1
      vertex 10 49 8.1
      vertex 10 48.2 8.1
    endloop
  endfacet
  facet normal 0 -1 0
    outer loop
      vertex 10 48.2 7.3
      vertex 12 48.2 8.1
      vertex 10 48.2 8.1
    endloop
  endfacet
  facet normal 0 -1 -0
    outer loop
      vertex 12 48.2 8.1
      vertex 10 48.2 7.3
      vertex 12 48.2 7.3
    endloop
  endfacet
  facet normal -1 0 0
    outer loop
      vertex 31.5 49 1.5
      vertex 31.5 48.2 7.3
      vertex 31.5 49 8.1
    endloop
  endfacet
  facet normal -1 0 0
    outer loop
      vertex 31.5 46 1.5
      vertex 31.5 48.2 7.3
      vertex 31.5 49 1.5
    endloop
  endfacet
  facet normal -1 -0 0
    outer loop
      vertex 31.5 48.2 7.3
      vertex 31.5 46 1.5
      vertex 31.5 46 7.3
    endloop
  endfacet
  facet normal -1 -0 0
    outer loop
      vertex 31.5 49 8.1
      vertex 31.5 48.2 7.3
      vertex 31.5 48.2 8.1
    endloop
  endfacet
  facet normal -0 0 1
    outer loop
      vertex 31.5 48.2 7.3
      vertex 33.5 46 7.3
      vertex 33.5 48.2 7.3
    endloop
  endfacet
  facet normal 0 0 1
    outer loop
      vertex 33.5 46 7.3
      vertex 31.5 48.2 7.3
      vertex 31.5 46 7.3
    endloop
  endfacet
  facet normal 1 0 0
    outer loop
      vertex 33.5 48.2 7.3
      vertex 33.5 49 8.1
      vertex 33.5 48.2 8.1
    endloop
  endfacet
  facet normal 1 0 0
    outer loop
      vertex 33.5 49 8.1
      vertex 33.5 48.2 7.3
      vertex 33.5 49 1.5
    endloop
  endfacet
  facet normal 1 0 0
    outer loop
      vertex 33.5 46 1.5
      vertex 33.5 48.2 7.3
      vertex 33.5 46 7.3
    endloop
  endfacet
  facet normal 1 0 0
    outer loop
      vertex 33.5 48.2 7.3
      vertex 33.5 46 1.5
      vertex 33.5 49 1.5
    endloop
  endfacet
  facet normal 0 -1 0
    outer loop
      vertex 31.5 46 1.5
      vertex 33.5 46 7.3
      vertex 31.5 46 7.3
    endloop
  endfacet
  facet normal 0 -1 -0
    outer loop
      vertex 33.5 46 7.3
      vertex 31.5 46 1.5
      vertex 33.5 46 1.5
    endloop
  endfacet
  facet normal 0 1 -0
    outer loop
      vertex 33.5 49 1.5
      vertex 31.5 49 8.1
      vertex 33.5 49 8.1
    endloop
  endfacet
  facet normal 0 1 0
    outer loop
      vertex 31.5 49 8.1
      vertex 33.5 49 1.5
      vertex 31.5 49 1.5
    endloop
  endfacet
  facet normal -0 0 1
    outer loop
      vertex 31.5 49 8.1
      vertex 33.5 48.2 8.1
      vertex 33.5 49 8.1
    endloop
  endfacet
  facet normal 0 0 1
    outer loop
      vertex 33.5 48.2 8.1
      vertex 31.5 49 8.1
      vertex 31.5 48.2 8.1
    endloop
  endfacet
  facet normal 0 -1 0
    outer loop
      vertex 31.5 48.2 7.3
      vertex 33.5 48.2 8.1
      vertex 31.5 48.2 8.1
    endloop
  endfacet
  facet normal 0 -1 -0
    outer loop
      vertex 33.5 48.2 8.1
      vertex 31.5 48.2 7.3
      vertex 33.5 48.2 7.3
    endloop
  endfacet
  facet normal -1 0 0
    outer loop
      vertex 12.85 76.4 1.5
      vertex 12.85 75.6 13.5
      vertex 12.85 76.4 14.3
    endloop
  endfacet
  facet normal -1 0 0
    outer loop
      vertex 12.85 73.4 1.5
      vertex 12.85 75.6 13.5
      vertex 12.85 76.4 1.5
    endloop
  endfacet
  facet normal -1 -0 0
    outer loop
      vertex 12.85 75.6 13.5
      vertex 12.85 73.4 1.5
      vertex 12.85 73.4 13.5
    endloop
  endfacet
  facet normal -1 -0 0
    outer loop
      vertex 12.85 76.4 14.3
      vertex 12.85 75.6 13.5
      vertex 12.85 75.6 14.3
    endloop
  endfacet
  facet normal -0 0 1
    outer loop
      vertex 12.85 75.6 13.5
      vertex 14.85 73.4 13.5
      vertex 14.85 75.6 13.5
    endloop
  endfacet
  facet normal 0 0 1
    outer loop
      vertex 14.85 73.4 13.5
      vertex 12.85 75.6 13.5
      vertex 12.85 73.4 13.5
    endloop
  endfacet
  facet normal 1 0 0
    outer loop
      vertex 14.85 75.6 13.5
      vertex 14.85 76.4 14.3
      vertex 14.85 75.6 14.3
    endloop
  endfacet
  facet normal 1 0 0
    outer loop
      vertex 14.85 76.4 14.3
      vertex 14.85 75.6 13.5
      vertex 14.85 76.4 1.5
    endloop
  endfacet
  facet normal 1 0 0
    outer loop
      vertex 14.85 73.4 1.5
      vertex 14.85 75.6 13.5
      vertex 14.85 73.4 13.5
    endloop
  endfacet
  facet normal 1 0 0
    outer loop
      vertex 14.85 75.6 13.5
      vertex 14.85 73.4 1.5
      vertex 14.85 76.4 1.5
    endloop
  endfacet
  facet normal 0 -1 0
    outer loop
      vertex 12.85 73.4 1.5
      vertex 14.85 73.4 13.5
      vertex 12.85 73.4 13.5
    endloop
  endfacet
  facet normal 0 -1 -0
    outer loop
      vertex 14.85 73.4 13.5
      vertex 12.85 73.4 1.5
      vertex 14.85 73.4 1.5
    endloop
  endfacet
  facet normal 0 1 -0
    outer loop
      vertex 14.85 76.4 1.5
      vertex 12.85 76.4 14.3
      vertex 14.85 76.4 14.3
    endloop
  endfacet
  facet normal 0 1 0
    outer loop
      vertex 12.85 76.4 14.3
      vertex 14.85 76.4 1.5
      vertex 12.85 76.4 1.5
    endloop
  endfacet
  facet normal -0 0 1
    outer loop
      vertex 12.85 76.4 14.3
      vertex 14.85 75.6 14.3
      vertex 14.85 76.4 14.3
    endloop
  endfacet
  facet normal 0 0 1
    outer loop
      vertex 14.85 75.6 14.3
      vertex 12.85 76.4 14.3
      vertex 12.85 75.6 14.3
    endloop
  endfacet
  facet normal 0 -1 0
    outer loop
      vertex 12.85 75.6 13.5
      vertex 14.85 75.6 14.3
      vertex 12.85 75.6 14.3
    endloop
  endfacet
  facet normal 0 -1 -0
    outer loop
      vertex 14.85 75.6 14.3
      vertex 12.85 75.6 13.5
      vertex 14.85 75.6 13.5
    endloop
  endfacet
  facet normal -1 0 0
    outer loop
      vertex 4 74.4 1.5
      vertex 4 75.9 6.7
      vertex 4 75.9 1.5
    endloop
  endfacet
  facet normal -1 -0 0
    outer loop
      vertex 4 75.9 6.7
      vertex 4 74.4 1.5
      vertex 4 74.4 6.7
    endloop
  endfacet
  facet normal -0 0 1
    outer loop
      vertex 4 75.9 6.7
      vertex 5.5 74.4 6.7
      vertex 5.5 75.9 6.7
    endloop
  endfacet
  facet normal 0 0 1
    outer loop
      vertex 5.5 74.4 6.7
      vertex 4 75.9 6.7
      vertex 4 74.4 6.7
    endloop
  endfacet
  facet normal 1 -0 0
    outer loop
      vertex 5.5 74.4 6.7
      vertex 5.5 75.9 1.5
      vertex 5.5 75.9 6.7
    endloop
  endfacet
  facet normal 1 0 0
    outer loop
      vertex 5.5 75.9 1.5
      vertex 5.5 74.4 6.7
      vertex 5.5 74.4 1.5
    endloop
  endfacet
  facet normal 0 1 -0
    outer loop
      vertex 5.5 75.9 1.5
      vertex 4 75.9 6.7
      vertex 5.5 75.9 6.7
    endloop
  endfacet
  facet normal 0 1 0
    outer loop
      vertex 4 75.9 6.7
      vertex 5.5 75.9 1.5
      vertex 4 75.9 1.5
    endloop
  endfacet
  facet normal 0 -1 0
    outer loop
      vertex 4 74.4 1.5
      vertex 5.5 74.4 6.7
      vertex 4 74.4 6.7
    endloop
  endfacet
  facet normal 0 -1 -0
    outer loop
      vertex 5.5 74.4 6.7
      vertex 4 74.4 1.5
      vertex 5.5 74.4 1.5
    endloop
  endfacet
  facet normal -1 0 0
    outer loop
      vertex 4 101.6 1.5
      vertex 4 103.1 6.7
      vertex 4 103.1 1.5
    endloop
  endfacet
  facet normal -1 -0 0
    outer loop
      vertex 4 103.1 6.7
      vertex 4 101.6 1.5
      vertex 4 101.6 6.7
    endloop
  endfacet
  facet normal -0 0 1
    outer loop
      vertex 4 103.1 6.7
      vertex 5.5 101.6 6.7
      vertex 5.5 103.1 6.7
    endloop
  endfacet
  facet normal 0 0 1
    outer loop
      vertex 5.5 101.6 6.7
      vertex 4 103.1 6.7
      vertex 4 101.6 6.7
    endloop
  endfacet
  facet normal 1 -0 0
    outer loop
      vertex 5.5 101.6 6.7
      vertex 5.5 103.1 1.5
      vertex 5.5 103.1 6.7
    endloop
  endfacet
  facet normal 1 0 0
    outer loop
      vertex 5.5 103.1 1.5
      vertex 5.5 101.6 6.7
      vertex 5.5 101.6 1.5
    endloop
  endfacet
  facet normal 0 1 -0
    outer loop
      vertex 5.5 103.1 1.5
      vertex 4 103.1 6.7
      vertex 5.5 103.1 6.7
    endloop
  endfacet
  facet normal 0 1 0
    outer loop
      vertex 4 103.1 6.7
      vertex 5.5 103.1 1.5
      vertex 4 103.1 1.5
    endloop
  endfacet
  facet normal 0 -1 0
    outer loop
      vertex 4 101.6 1.5
      vertex 5.5 101.6 6.7
      vertex 4 101.6 6.7
    endloop
  endfacet
  facet normal 0 -1 -0
    outer loop
      vertex 5.5 101.6 6.7
      vertex 4 101.6 1.5
      vertex 5.5 101.6 1.5
    endloop
  endfacet
  facet normal -1 0 0
    outer loop
      vertex 31.2 74.4 1.5
      vertex 31.2 75.9 6.7
      vertex 31.2 75.9 1.5
    endloop
  endfacet
  facet normal -1 -0 0
    outer loop
      vertex 31.2 75.9 6.7
      vertex 31.2 74.4 1.5
      vertex 31.2 74.4 6.7
    endloop
  endfacet
  facet normal -0 0 1
    outer loop
      vertex 31.2 75.9 6.7
      vertex 32.7 74.4 6.7
      vertex 32.7 75.9 6.7
    endloop
  endfacet
  facet normal 0 0 1
    outer loop
      vertex 32.7 74.4 6.7
      vertex 31.2 75.9 6.7
      vertex 31.2 74.4 6.7
    endloop
  endfacet
  facet normal 1 -0 0
    outer loop
      vertex 32.7 74.4 6.7
      vertex 32.7 75.9 1.5
      vertex 32.7 75.9 6.7
    endloop
  endfacet
  facet normal 1 0 0
    outer loop
      vertex 32.7 75.9 1.5
      vertex 32.7 74.4 6.7
      vertex 32.7 74.4 1.5
    endloop
  endfacet
  facet normal 0 1 -0
    outer loop
      vertex 32.7 75.9 1.5
      vertex 31.2 75.9 6.7
      vertex 32.7 75.9 6.7
    endloop
  endfacet
  facet normal 0 1 0
    outer loop
      vertex 31.2 75.9 6.7
      vertex 32.7 75.9 1.5
      vertex 31.2 75.9 1.5
    endloop
  endfacet
  facet normal 0 -1 0
    outer loop
      vertex 31.2 74.4 1.5
      vertex 32.7 74.4 6.7
      vertex 31.2 74.4 6.7
    endloop
  endfacet
  facet normal 0 -1 -0
    outer loop
      vertex 32.7 74.4 6.7
      vertex 31.2 74.4 1.5
      vertex 32.7 74.4 1.5
    endloop
  endfacet
  facet normal -1 0 0
    outer loop
      vertex 31.2 101.6 1.5
      vertex 31.2 103.1 6.7
      vertex 31.2 103.1 1.5
    endloop
  endfacet
  facet normal -1 -0 0
    outer loop
      vertex 31.2 103.1 6.7
      vertex 31.2 101.6 1.5
      vertex 31.2 101.6 6.7
    endloop
  endfacet
  facet normal -0 0 1
    outer loop
      vertex 31.2 103.1 6.7
      vertex 32.7 101.6 6.7
      vertex 32.7 103.1 6.7
    endloop
  endfacet
  facet normal 0 0 1
    outer loop
      vertex 32.7 101.6 6.7
      vertex 31.2 103.1 6.7
      vertex 31.2 101.6 6.7
    endloop
  endfacet
  facet normal 1 -0 0
    outer loop
      vertex 32.7 101.6 6.7
      vertex 32.7 103.1 1.5
      vertex 32.7 103.1 6.7
    endloop
  endfacet
  facet normal 1 0 0
    outer loop
      vertex 32.7 103.1 1.5
      vertex 32.7 101.6 6.7
      vertex 32.7 101.6 1.5
    endloop
  endfacet
  facet normal 0 -1 0
    outer loop
      vertex 31.2 101.6 1.5
      vertex 32.7 101.6 6.7
      vertex 31.2 101.6 6.7
    endloop
  endfacet
  facet normal 0 -1 -0
    outer loop
      vertex 32.7 101.6 6.7
      vertex 31.2 101.6 1.5
      vertex 32.7 101.6 1.5
    endloop
  endfacet
  facet normal 0 1 -0
    outer loop
      vertex 32.7 103.1 1.5
      vertex 31.2 103.1 6.7
      vertex 32.7 103.1 6.7
    endloop
  endfacet
  facet normal 0 1 0
    outer loop
      vertex 31.2 103.1 6.7
      vertex 32.7 103.1 1.5
      vertex 31.2 103.1 1.5
    endloop
  endfacet
  facet normal -1 0 0
    outer loop
      vertex 0 0 0
      vertex 0 105.4 1.5
      vertex 0 105.4 0
    endloop
  endfacet
  facet normal -1 -0 0
    outer loop
      vertex 0 105.4 1.5
      vertex 0 0 0
      vertex 0 0 1.5
    endloop
  endfacet
  facet normal 0 0 -1
    outer loop
      vertex 0 0 0
      vertex 75.4 105.4 0
      vertex 75.4 0 0
    endloop
  endfacet
  facet normal -0 0 -1
    outer loop
      vertex 75.4 105.4 0
      vertex 0 0 0
      vertex 0 105.4 0
    endloop
  endfacet
  facet normal 0 -1 0
    outer loop
      vertex 0 0 0
      vertex 75.4 0 1.5
      vertex 0 0 1.5
    endloop
  endfacet
  facet normal 0 -1 -0
    outer loop
      vertex 75.4 0 1.5
      vertex 0 0 0
      vertex 75.4 0 0
    endloop
  endfacet
  facet normal 0 1 -0
    outer loop
      vertex 75.4 105.4 0
      vertex 67.4 105.4 1.5
      vertex 75.4 105.4 1.5
    endloop
  endfacet
  facet normal 0 1 0
    outer loop
      vertex 67.4 105.4 1.5
      vertex 75.4 105.4 0
      vertex 65.4 105.4 1.5
    endloop
  endfacet
  facet normal 0 1 0
    outer loop
      vertex 65.4 105.4 1.5
      vertex 75.4 105.4 0
      vertex 51.9 105.4 1.5
    endloop
  endfacet
  facet normal 0 1 0
    outer loop
      vertex 51.9 105.4 1.5
      vertex 75.4 105.4 0
      vertex 49.9 105.4 1.5
    endloop
  endfacet
  facet normal 0 1 0
    outer loop
      vertex 49.9 105.4 1.5
      vertex 75.4 105.4 0
      vertex 40.7 105.4 1.5
    endloop
  endfacet
  facet normal 0 1 0
    outer loop
      vertex 40.7 105.4 1.5
      vertex 75.4 105.4 0
      vertex 34.7 105.4 1.5
    endloop
  endfacet
  facet normal 0 1 0
    outer loop
      vertex 0 105.4 0
      vertex 34.7 105.4 1.5
      vertex 75.4 105.4 0
    endloop
  endfacet
  facet normal 0 1 0
    outer loop
      vertex 34.7 105.4 1.5
      vertex 0 105.4 0
      vertex 0 105.4 1.5
    endloop
  endfacet
  facet normal 0 1 -0
    outer loop
      vertex 40.7 105.4 1.5
      vertex 34.7 105.4 2.5
      vertex 40.7 105.4 2.5
    endloop
  endfacet
  facet normal 0 1 0
    outer loop
      vertex 34.7 105.4 2.5
      vertex 40.7 105.4 1.5
      vertex 34.7 105.4 1.5
    endloop
  endfacet
  facet normal 1 -0 0
    outer loop
      vertex 75.4 0 1.5
      vertex 75.4 105.4 0
      vertex 75.4 105.4 1.5
    endloop
  endfacet
  facet normal 1 0 0
    outer loop
      vertex 75.4 105.4 0
      vertex 75.4 0 1.5
      vertex 75.4 0 0
    endloop
  endfacet
  facet normal -1 0 0
    outer loop
      vertex 45.4 42.4 1.5
      vertex 45.4 102.4 12.35
      vertex 45.4 102.4 1.5
    endloop
  endfacet
  facet normal -1 -0 0
    outer loop
      vertex 45.4 102.4 12.35
      vertex 45.4 42.4 1.5
      vertex 45.4 42.4 12.35
    endloop
  endfacet
  facet normal -0 0 1
    outer loop
      vertex 45.4 102.4 12.35
      vertex 46.9 42.4 12.35
      vertex 46.9 102.4 12.35
    endloop
  endfacet
  facet normal 0 0 1
    outer loop
      vertex 46.9 42.4 12.35
      vertex 45.4 102.4 12.35
      vertex 45.4 42.4 12.35
    endloop
  endfacet
  facet normal 1 0 0
    outer loop
      vertex 46.9 42.4 9.25
      vertex 46.9 102.4 12.35
      vertex 46.9 42.4 12.35
    endloop
  endfacet
  facet normal 1 0 0
    outer loop
      vertex 46.9 102.4 12.35
      vertex 46.9 42.4 9.25
      vertex 46.9 102.4 1.5
    endloop
  endfacet
  facet normal 1 0 0
    outer loop
      vertex 46.9 102.4 1.5
      vertex 46.9 42.4 9.25
      vertex 46.9 42.4 1.5
    endloop
  endfacet
  facet normal 0 -1 0
    outer loop
      vertex 45.4 42.4 12.35
      vertex 46.9 42.4 9.25
      vertex 46.9 42.4 12.35
    endloop
  endfacet
  facet normal 0 -1 0
    outer loop
      vertex 45.4 42.4 1.5
      vertex 46.9 42.4 9.25
      vertex 45.4 42.4 12.35
    endloop
  endfacet
  facet normal 0 -1 -0
    outer loop
      vertex 46.9 42.4 9.25
      vertex 45.4 42.4 1.5
      vertex 46.9 42.4 1.5
    endloop
  endfacet
  facet normal 0 1 -0
    outer loop
      vertex 46.9 102.4 1.5
      vertex 45.4 102.4 12.35
      vertex 46.9 102.4 12.35
    endloop
  endfacet
  facet normal 0 1 0
    outer loop
      vertex 45.4 102.4 12.35
      vertex 46.9 102.4 1.5
      vertex 45.4 102.4 1.5
    endloop
  endfacet
  facet normal -1 0 0
    outer loop
      vertex 70.7 42.4 1.5
      vertex 70.7 102.4 12.35
      vertex 70.7 102.4 1.5
    endloop
  endfacet
  facet normal -1 -0 0
    outer loop
      vertex 70.7 102.4 12.35
      vertex 70.7 42.4 1.5
      vertex 70.7 42.4 12.35
    endloop
  endfacet
  facet normal -0 0 1
    outer loop
      vertex 70.7 102.4 12.35
      vertex 72.2 42.4 12.35
      vertex 72.2 102.4 12.35
    endloop
  endfacet
  facet normal 0 0 1
    outer loop
      vertex 72.2 42.4 12.35
      vertex 70.7 102.4 12.35
      vertex 70.7 42.4 12.35
    endloop
  endfacet
  facet normal 1 -0 0
    outer loop
      vertex 72.2 42.4 12.35
      vertex 72.2 102.4 1.5
      vertex 72.2 102.4 12.35
    endloop
  endfacet
  facet normal 1 0 0
    outer loop
      vertex 72.2 102.4 1.5
      vertex 72.2 42.4 12.35
      vertex 72.2 42.4 1.5
    endloop
  endfacet
  facet normal 0 1 -0
    outer loop
      vertex 72.2 102.4 1.5
      vertex 70.7 102.4 12.35
      vertex 72.2 102.4 12.35
    endloop
  endfacet
  facet normal 0 1 0
    outer loop
      vertex 70.7 102.4 12.35
      vertex 72.2 102.4 1.5
      vertex 70.7 102.4 1.5
    endloop
  endfacet
  facet normal 0 -1 0
    outer loop
      vertex 70.7 42.4 1.5
      vertex 72.2 42.4 12.35
      vertex 70.7 42.4 12.35
    endloop
  endfacet
  facet normal 0 -1 -0
    outer loop
      vertex 72.2 42.4 12.35
      vertex 70.7 42.4 1.5
      vertex 72.2 42.4 1.5
    endloop
  endfacet
  facet normal -1 0 0
    outer loop
      vertex 46.9 40.9 1.5
      vertex 46.9 42.4 9.25
      vertex 46.9 42.4 1.5
    endloop
  endfacet
  facet normal -1 -0 0
    outer loop
      vertex 46.9 42.4 9.25
      vertex 46.9 40.9 1.5
      vertex 46.9 40.9 9.25
    endloop
  endfacet
  facet normal -0 0 1
    outer loop
      vertex 46.9 42.4 9.25
      vertex 70.4 40.9 9.25
      vertex 70.4 42.4 9.25
    endloop
  endfacet
  facet normal 0 0 1
    outer loop
      vertex 70.4 40.9 9.25
      vertex 46.9 42.4 9.25
      vertex 46.9 40.9 9.25
    endloop
  endfacet
  facet normal 1 -0 0
    outer loop
      vertex 70.4 40.9 9.25
      vertex 70.4 42.4 1.5
      vertex 70.4 42.4 9.25
    endloop
  endfacet
  facet normal 1 0 0
    outer loop
      vertex 70.4 42.4 1.5
      vertex 70.4 40.9 9.25
      vertex 70.4 40.9 1.5
    endloop
  endfacet
  facet normal 0 -1 0
    outer loop
      vertex 46.9 40.9 1.5
      vertex 70.4 40.9 9.25
      vertex 46.9 40.9 9.25
    endloop
  endfacet
  facet normal 0 -1 -0
    outer loop
      vertex 70.4 40.9 9.25
      vertex 46.9 40.9 1.5
      vertex 70.4 40.9 1.5
    endloop
  endfacet
  facet normal 0 1 -0
    outer loop
      vertex 70.4 42.4 1.5
      vertex 46.9 42.4 9.25
      vertex 70.4 42.4 9.25
    endloop
  endfacet
  facet normal 0 1 0
    outer loop
      vertex 46.9 42.4 9.25
      vertex 70.4 42.4 1.5
      vertex 46.9 42.4 1.5
    endloop
  endfacet
  facet normal -1 0 0
    outer loop
      vertex 3.8 3 1.5
      vertex 3.8 46 8.3
      vertex 3.8 46 1.5
    endloop
  endfacet
  facet normal -1 -0 0
    outer loop
      vertex 3.8 46 8.3
      vertex 3.8 3 1.5
      vertex 3.8 3 8.3
    endloop
  endfacet
  facet normal -0 0 1
    outer loop
      vertex 3.8 46 8.3
      vertex 5 3 8.3
      vertex 5 46 8.3
    endloop
  endfacet
  facet normal 0 0 1
    outer loop
      vertex 5 3 8.3
      vertex 3.8 46 8.3
      vertex 3.8 3 8.3
    endloop
  endfacet
  facet normal 1 0 0
    outer loop
      vertex 5 3 7.3
      vertex 5 46 8.3
      vertex 5 3 8.3
    endloop
  endfacet
  facet normal 1 0 0
    outer loop
      vertex 5 46 8.3
      vertex 5 3 7.3
      vertex 5 46 1.5
    endloop
  endfacet
  facet normal 1 0 0
    outer loop
      vertex 5 46 1.5
      vertex 5 3 7.3
      vertex 5 3 1.5
    endloop
  endfacet
  facet normal 0 1 -0
    outer loop
      vertex 5 46 1.5
      vertex 3.8 46 8.3
      vertex 5 46 8.3
    endloop
  endfacet
  facet normal 0 1 0
    outer loop
      vertex 3.8 46 8.3
      vertex 5 46 1.5
      vertex 3.8 46 1.5
    endloop
  endfacet
  facet normal 0 -1 0
    outer loop
      vertex 3.8 3 8.3
      vertex 5 3 7.3
      vertex 5 3 8.3
    endloop
  endfacet
  facet normal 0 -1 0
    outer loop
      vertex 3.8 3 1.5
      vertex 5 3 7.3
      vertex 3.8 3 8.3
    endloop
  endfacet
  facet normal 0 -1 -0
    outer loop
      vertex 5 3 7.3
      vertex 3.8 3 1.5
      vertex 5 3 1.5
    endloop
  endfacet
  facet normal -1 0 0
    outer loop
      vertex 38.8 3 1.5
      vertex 38.8 46 8.3
      vertex 38.8 46 1.5
    endloop
  endfacet
  facet normal -1 -0 0
    outer loop
      vertex 38.8 46 8.3
      vertex 38.8 3 1.5
      vertex 38.8 3 8.3
    endloop
  endfacet
  facet normal -0 0 1
    outer loop
      vertex 38.8 46 8.3
      vertex 40 3 8.3
      vertex 40 46 8.3
    endloop
  endfacet
  facet normal 0 0 1
    outer loop
      vertex 40 3 8.3
      vertex 38.8 46 8.3
      vertex 38.8 3 8.3
    endloop
  endfacet
  facet normal 1 -0 0
    outer loop
      vertex 40 3 8.3
      vertex 40 46 1.5
      vertex 40 46 8.3
    endloop
  endfacet
  facet normal 1 0 0
    outer loop
      vertex 40 46 1.5
      vertex 40 3 8.3
      vertex 40 3 1.5
    endloop
  endfacet
  facet normal 0 1 -0
    outer loop
      vertex 40 46 1.5
      vertex 38.8 46 8.3
      vertex 40 46 8.3
    endloop
  endfacet
  facet normal 0 1 0
    outer loop
      vertex 38.8 46 8.3
      vertex 40 46 1.5
      vertex 38.8 46 1.5
    endloop
  endfacet
  facet normal 0 -1 0
    outer loop
      vertex 38.8 3 1.5
      vertex 40 3 8.3
      vertex 38.8 3 8.3
    endloop
  endfacet
  facet normal 0 -1 -0
    outer loop
      vertex 40 3 8.3
      vertex 38.8 3 1.5
      vertex 40 3 1.5
    endloop
  endfacet
  facet normal -1 0 0
    outer loop
      vertex 5 2 1.5
      vertex 5 3 7.3
      vertex 5 3 1.5
    endloop
  endfacet
  facet normal -1 -0 0
    outer loop
      vertex 5 3 7.3
      vertex 5 2 1.5
      vertex 5 2 7.3
    endloop
  endfacet
  facet normal -0 0 1
    outer loop
      vertex 5 3 7.3
      vertex 38.5 2 7.3
      vertex 38.5 3 7.3
    endloop
  endfacet
  facet normal 0 0 1
    outer loop
      vertex 38.5 2 7.3
      vertex 5 3 7.3
      vertex 5 2 7.3
    endloop
  endfacet
  facet normal 1 -0 0
    outer loop
      vertex 38.5 2 7.3
      vertex 38.5 3 1.5
      vertex 38.5 3 7.3
    endloop
  endfacet
  facet normal 1 0 0
    outer loop
      vertex 38.5 3 1.5
      vertex 38.5 2 7.3
      vertex 38.5 2 1.5
    endloop
  endfacet
  facet normal 0 1 -0
    outer loop
      vertex 38.5 3 1.5
      vertex 5 3 7.3
      vertex 38.5 3 7.3
    endloop
  endfacet
  facet normal 0 1 0
    outer loop
      vertex 5 3 7.3
      vertex 38.5 3 1.5
      vertex 5 3 1.5
    endloop
  endfacet
  facet normal 0 -1 0
    outer loop
      vertex 5 2 1.5
      vertex 38.5 2 7.3
      vertex 5 2 7.3
    endloop
  endfacet
  facet normal 0 -1 -0
    outer loop
      vertex 38.5 2 7.3
      vertex 5 2 1.5
      vertex 38.5 2 1.5
    endloop
  endfacet
  facet normal -1 0 0
    outer loop
      vertex 3.8 48 1.5
      vertex 3.8 73.4 14.5
      vertex 3.8 73.4 1.5
    endloop
  endfacet
  facet normal -1 -0 0
    outer loop
      vertex 3.8 73.4 14.5
      vertex 3.8 48 1.5
      vertex 3.8 48 14.5
    endloop
  endfacet
  facet normal -0 0 1
    outer loop
      vertex 3.8 73.4 14.5
      vertex 5 48 14.5
      vertex 5 73.4 14.5
    endloop
  endfacet
  facet normal 0 0 1
    outer loop
      vertex 5 48 14.5
      vertex 3.8 73.4 14.5
      vertex 3.8 48 14.5
    endloop
  endfacet
  facet normal 1 0 0
    outer loop
      vertex 5 48 8.7
      vertex 5 73.4 14.5
      vertex 5 48 14.5
    endloop
  endfacet
  facet normal 1 0 0
    outer loop
      vertex 5 73.4 14.5
      vertex 5 48 8.7
      vertex 5 73.4 1.5
    endloop
  endfacet
  facet normal 1 0 0
    outer loop
      vertex 5 73.4 1.5
      vertex 5 48 8.7
      vertex 5 48 1.5
    endloop
  endfacet
  facet normal 0 -1 0
    outer loop
      vertex 3.8 48 14.5
      vertex 5 48 8.7
      vertex 5 48 14.5
    endloop
  endfacet
  facet normal 0 -1 0
    outer loop
      vertex 3.8 48 1.5
      vertex 5 48 8.7
      vertex 3.8 48 14.5
    endloop
  endfacet
  facet normal 0 -1 -0
    outer loop
      vertex 5 48 8.7
      vertex 3.8 48 1.5
      vertex 5 48 1.5
    endloop
  endfacet
  facet normal 0 1 -0
    outer loop
      vertex 5 73.4 1.5
      vertex 3.8 73.4 14.5
      vertex 5 73.4 14.5
    endloop
  endfacet
  facet normal 0 1 0
    outer loop
      vertex 3.8 73.4 14.5
      vertex 5 73.4 1.5
      vertex 3.8 73.4 1.5
    endloop
  endfacet
  facet normal -1 0 0
    outer loop
      vertex 22.7 48 8.7
      vertex 22.7 73.4 1.5
      vertex 22.7 48 1.5
    endloop
  endfacet
  facet normal -1 0 0
    outer loop
      vertex 22.7 73.4 1.5
      vertex 22.7 48 8.7
      vertex 22.7 73.4 14.5
    endloop
  endfacet
  facet normal -1 -0 0
    outer loop
      vertex 22.7 73.4 14.5
      vertex 22.7 48 8.7
      vertex 22.7 48 14.5
    endloop
  endfacet
  facet normal -0 0 1
    outer loop
      vertex 22.7 73.4 14.5
      vertex 23.9 48 14.5
      vertex 23.9 73.4 14.5
    endloop
  endfacet
  facet normal 0 0 1
    outer loop
      vertex 23.9 48 14.5
      vertex 22.7 73.4 14.5
      vertex 22.7 48 14.5
    endloop
  endfacet
  facet normal 1 -0 0
    outer loop
      vertex 23.9 48 14.5
      vertex 23.9 73.4 1.5
      vertex 23.9 73.4 14.5
    endloop
  endfacet
  facet normal 1 0 0
    outer loop
      vertex 23.9 73.4 1.5
      vertex 23.9 48 14.5
      vertex 23.9 48 1.5
    endloop
  endfacet
  facet normal 0 -1 0
    outer loop
      vertex 22.7 48 8.7
      vertex 23.9 48 14.5
      vertex 22.7 48 14.5
    endloop
  endfacet
  facet normal 0 -1 0
    outer loop
      vertex 23.9 48 1.5
      vertex 22.7 48 8.7
      vertex 22.7 48 1.5
    endloop
  endfacet
  facet normal 0 -1 0
    outer loop
      vertex 22.7 48 8.7
      vertex 23.9 48 1.5
      vertex 23.9 48 14.5
    endloop
  endfacet
  facet normal 0 1 -0
    outer loop
      vertex 23.9 73.4 1.5
      vertex 22.7 73.4 14.5
      vertex 23.9 73.4 14.5
    endloop
  endfacet
  facet normal 0 1 0
    outer loop
      vertex 22.7 73.4 14.5
      vertex 23.9 73.4 1.5
      vertex 22.7 73.4 1.5
    endloop
  endfacet
  facet normal -1 0 0
    outer loop
      vertex 5 47 1.5
      vertex 5 48 8.7
      vertex 5 48 1.5
    endloop
  endfacet
  facet normal -1 -0 0
    outer loop
      vertex 5 48 8.7
      vertex 5 47 1.5
      vertex 5 47 8.7
    endloop
  endfacet
  facet normal -0 0 1
    outer loop
      vertex 5 48 8.7
      vertex 22.7 47 8.7
      vertex 22.7 48 8.7
    endloop
  endfacet
  facet normal 0 0 1
    outer loop
      vertex 22.7 47 8.7
      vertex 5 48 8.7
      vertex 5 47 8.7
    endloop
  endfacet
  facet normal 1 -0 0
    outer loop
      vertex 22.7 47 8.7
      vertex 22.7 48 1.5
      vertex 22.7 48 8.7
    endloop
  endfacet
  facet normal 1 0 0
    outer loop
      vertex 22.7 48 1.5
      vertex 22.7 47 8.7
      vertex 22.7 47 1.5
    endloop
  endfacet
  facet normal 0 1 0
    outer loop
      vertex 22.7 48 8.7
      vertex 12 48 7.3
      vertex 5 48 8.7
    endloop
  endfacet
  facet normal 0 1 -0
    outer loop
      vertex 22.7 48 1.5
      vertex 12 48 7.3
      vertex 22.7 48 8.7
    endloop
  endfacet
  facet normal 0 1 0
    outer loop
      vertex 12 48 7.3
      vertex 22.7 48 1.5
      vertex 12 48 1.5
    endloop
  endfacet
  facet normal 0 1 -0
    outer loop
      vertex 10 48 7.3
      vertex 5 48 8.7
      vertex 12 48 7.3
    endloop
  endfacet
  facet normal 0 1 0
    outer loop
      vertex 5 48 1.5
      vertex 10 48 7.3
      vertex 10 48 1.5
    endloop
  endfacet
  facet normal 0 1 0
    outer loop
      vertex 10 48 7.3
      vertex 5 48 1.5
      vertex 5 48 8.7
    endloop
  endfacet
  facet normal 0 -1 0
    outer loop
      vertex 12 47 7.3
      vertex 5 47 8.7
      vertex 10 47 7.3
    endloop
  endfacet
  facet normal 0 -1 0
    outer loop
      vertex 5 47 1.5
      vertex 10 47 7.3
      vertex 5 47 8.7
    endloop
  endfacet
  facet normal 0 -1 -0
    outer loop
      vertex 10 47 7.3
      vertex 5 47 1.5
      vertex 10 47 1.5
    endloop
  endfacet
  facet normal 0 -1 0
    outer loop
      vertex 5 47 8.7
      vertex 12 47 7.3
      vertex 22.7 47 8.7
    endloop
  endfacet
  facet normal 0 -1 0
    outer loop
      vertex 22.7 47 1.5
      vertex 12 47 7.3
      vertex 12 47 1.5
    endloop
  endfacet
  facet normal 0 -1 0
    outer loop
      vertex 12 47 7.3
      vertex 22.7 47 1.5
      vertex 22.7 47 8.7
    endloop
  endfacet
  facet normal -1 0 0
    outer loop
      vertex 4 87.35 5.7
      vertex 4 89.35 6.5
      vertex 4 89.35 5.7
    endloop
  endfacet
  facet normal -1 -0 0
    outer loop
      vertex 4 89.35 6.5
      vertex 4 87.35 5.7
      vertex 4 87.35 6.5
    endloop
  endfacet
  facet normal -0 0 1
    outer loop
      vertex 4 89.35 6.5
      vertex 5.5 87.35 6.5
      vertex 5.5 89.35 6.5
    endloop
  endfacet
  facet normal 0 0 1
    outer loop
      vertex 5.5 87.35 6.5
      vertex 4 89.35 6.5
      vertex 4 87.35 6.5
    endloop
  endfacet
  facet normal 1 -0 0
    outer loop
      vertex 5.5 87.35 6.5
      vertex 5.5 89.35 5.7
      vertex 5.5 89.35 6.5
    endloop
  endfacet
  facet normal 1 0 0
    outer loop
      vertex 5.5 89.35 5.7
      vertex 5.5 87.35 6.5
      vertex 5.5 87.35 5.7
    endloop
  endfacet
  facet normal 0 1 -0
    outer loop
      vertex 5.5 89.35 5.7
      vertex 4 89.35 6.5
      vertex 5.5 89.35 6.5
    endloop
  endfacet
  facet normal 0 1 0
    outer loop
      vertex 4 89.35 6.5
      vertex 5.5 89.35 5.7
      vertex 4 89.35 5.7
    endloop
  endfacet
  facet normal 0 0 -1
    outer loop
      vertex 4 87.35 5.7
      vertex 5.5 89.35 5.7
      vertex 5.5 87.35 5.7
    endloop
  endfacet
  facet normal -0 0 -1
    outer loop
      vertex 5.5 89.35 5.7
      vertex 4 87.35 5.7
      vertex 4 89.35 5.7
    endloop
  endfacet
  facet normal 0 -1 0
    outer loop
      vertex 4 87.35 5.7
      vertex 5.5 87.35 6.5
      vertex 4 87.35 6.5
    endloop
  endfacet
  facet normal 0 -1 -0
    outer loop
      vertex 5.5 87.35 6.5
      vertex 4 87.35 5.7
      vertex 5.5 87.35 5.7
    endloop
  endfacet
  facet normal -1 0 0
    outer loop
      vertex 31.2 87.35 5.7
      vertex 31.2 89.35 6.5
      vertex 31.2 89.35 5.7
    endloop
  endfacet
  facet normal -1 -0 0
    outer loop
      vertex 31.2 89.35 6.5
      vertex 31.2 87.35 5.7
      vertex 31.2 87.35 6.5
    endloop
  endfacet
  facet normal -0 0 1
    outer loop
      vertex 31.2 89.35 6.5
      vertex 32.7 87.35 6.5
      vertex 32.7 89.35 6.5
    endloop
  endfacet
  facet normal 0 0 1
    outer loop
      vertex 32.7 87.35 6.5
      vertex 31.2 89.35 6.5
      vertex 31.2 87.35 6.5
    endloop
  endfacet
  facet normal 1 -0 0
    outer loop
      vertex 32.7 87.35 6.5
      vertex 32.7 89.35 5.7
      vertex 32.7 89.35 6.5
    endloop
  endfacet
  facet normal 1 0 0
    outer loop
      vertex 32.7 89.35 5.7
      vertex 32.7 87.35 6.5
      vertex 32.7 87.35 5.7
    endloop
  endfacet
  facet normal 0 0 -1
    outer loop
      vertex 31.2 87.35 5.7
      vertex 32.7 89.35 5.7
      vertex 32.7 87.35 5.7
    endloop
  endfacet
  facet normal -0 0 -1
    outer loop
      vertex 32.7 89.35 5.7
      vertex 31.2 87.35 5.7
      vertex 31.2 89.35 5.7
    endloop
  endfacet
  facet normal 0 -1 0
    outer loop
      vertex 31.2 87.35 5.7
      vertex 32.7 87.35 6.5
      vertex 31.2 87.35 6.5
    endloop
  endfacet
  facet normal 0 -1 -0
    outer loop
      vertex 32.7 87.35 6.5
      vertex 31.2 87.35 5.7
      vertex 32.7 87.35 5.7
    endloop
  endfacet
  facet normal 0 1 -0
    outer loop
      vertex 32.7 89.35 5.7
      vertex 31.2 89.35 6.5
      vertex 32.7 89.35 6.5
    endloop
  endfacet
  facet normal 0 1 0
    outer loop
      vertex 31.2 89.35 6.5
      vertex 32.7 89.35 5.7
      vertex 31.2 89.35 5.7
    endloop
  endfacet
  facet normal -1 0 0
    outer loop
      vertex 34.7 103.4 1.5
      vertex 34.7 105.4 2.5
      vertex 34.7 105.4 1.5
    endloop
  endfacet
  facet normal -1 -0 0
    outer loop
      vertex 34.7 105.4 2.5
      vertex 34.7 103.4 1.5
      vertex 34.7 103.4 2.5
    endloop
  endfacet
  facet normal -0 0 1
    outer loop
      vertex 34.7 105.4 2.5
      vertex 40.7 103.4 2.5
      vertex 40.7 105.4 2.5
    endloop
  endfacet
  facet normal 0 0 1
    outer loop
      vertex 40.7 103.4 2.5
      vertex 34.7 105.4 2.5
      vertex 34.7 103.4 2.5
    endloop
  endfacet
  facet normal 1 -0 0
    outer loop
      vertex 40.7 103.4 2.5
      vertex 40.7 105.4 1.5
      vertex 40.7 105.4 2.5
    endloop
  endfacet
  facet normal 1 0 0
    outer loop
      vertex 40.7 105.4 1.5
      vertex 40.7 103.4 2.5
      vertex 40.7 103.4 1.5
    endloop
  endfacet
  facet normal 0 -1 0
    outer loop
      vertex 34.7 103.4 1.5
      vertex 40.7 103.4 2.5
      vertex 34.7 103.4 2.5
    endloop
  endfacet
  facet normal 0 -1 -0
    outer loop
      vertex 40.7 103.4 2.5
      vertex 34.7 103.4 1.5
      vertex 40.7 103.4 1.5
    endloop
  endfacet
endsolid OpenSCAD_Model
