solid OpenSCAD_Model
  facet normal 1 -0 0
    outer loop
      vertex -1.1 -3 2
      vertex -1.1 -1.1 0
      vertex -1.1 -1.1 2
    endloop
  endfacet
  facet normal 1 0 0
    outer loop
      vertex -1.1 -1.1 0
      vertex -1.1 -3 2
      vertex -1.1 -3 0
    endloop
  endfacet
  facet normal 1 -0 0
    outer loop
      vertex -1.1 1.1 2
      vertex -1.1 3 0
      vertex -1.1 3 2
    endloop
  endfacet
  facet normal 1 0 0
    outer loop
      vertex -1.1 3 0
      vertex -1.1 1.1 2
      vertex -1.1 1.1 0
    endloop
  endfacet
  facet normal 0 0 -1
    outer loop
      vertex 1.1 -3 2
      vertex 0 -2.5 2
      vertex 1.1 -2.5 2
    endloop
  endfacet
  facet normal 0 0 -1
    outer loop
      vertex -1.1 -1.1 2
      vertex 0 -2.5 2
      vertex -1.1 -3 2
    endloop
  endfacet
  facet normal 0 0 -1
    outer loop
      vertex -1.1 -3 2
      vertex 0 -2.5 2
      vertex 1.1 -3 2
    endloop
  endfacet
  facet normal 0 0 -1
    outer loop
      vertex 0 2.5 2
      vertex 1.1 3 2
      vertex 1.1 2.5 2
    endloop
  endfacet
  facet normal 0 0 -1
    outer loop
      vertex 0 -2.5 2
      vertex -1.1 -1.1 2
      vertex 0 2.5 2
    endloop
  endfacet
  facet normal 0 0 -1
    outer loop
      vertex -1.1 1.1 2
      vertex 0 2.5 2
      vertex -1.1 -1.1 2
    endloop
  endfacet
  facet normal 0 0 -1
    outer loop
      vertex 0 2.5 2
      vertex -1.1 3 2
      vertex 1.1 3 2
    endloop
  endfacet
  facet normal 0 0 -1
    outer loop
      vertex -1.1 3 2
      vertex 0 2.5 2
      vertex -1.1 1.1 2
    endloop
  endfacet
  facet normal 0 0 -1
    outer loop
      vertex -3 -1.1 2
      vertex -1.1 1.1 2
      vertex -1.1 -1.1 2
    endloop
  endfacet
  facet normal -0 0 -1
    outer loop
      vertex -1.1 1.1 2
      vertex -3 -1.1 2
      vertex -3 1.1 2
    endloop
  endfacet
  facet normal -1 0 0
    outer loop
      vertex 1.1 -3 0
      vertex 1.1 -2.5 2
      vertex 1.1 -2.5 0
    endloop
  endfacet
  facet normal -1 -0 0
    outer loop
      vertex 1.1 -2.5 2
      vertex 1.1 -3 0
      vertex 1.1 -3 2
    endloop
  endfacet
  facet normal -1 0 0
    outer loop
      vertex 1.1 2.5 0
      vertex 1.1 3 2
      vertex 1.1 3 0
    endloop
  endfacet
  facet normal -1 -0 0
    outer loop
      vertex 1.1 3 2
      vertex 1.1 2.5 0
      vertex 1.1 2.5 2
    endloop
  endfacet
  facet normal 0 1 -0
    outer loop
      vertex 1.1 -3 0
      vertex -1.1 -3 2
      vertex 1.1 -3 2
    endloop
  endfacet
  facet normal 0 1 0
    outer loop
      vertex -1.1 -3 2
      vertex 1.1 -3 0
      vertex -1.1 -3 0
    endloop
  endfacet
  facet normal 0 -1 0
    outer loop
      vertex -1.1 3 0
      vertex 1.1 3 2
      vertex -1.1 3 2
    endloop
  endfacet
  facet normal 0 -1 -0
    outer loop
      vertex 1.1 3 2
      vertex -1.1 3 0
      vertex 1.1 3 0
    endloop
  endfacet
  facet normal 1 -0 0
    outer loop
      vertex -3 -1.1 2
      vertex -3 1.1 0
      vertex -3 1.1 2
    endloop
  endfacet
  facet normal 1 0 0
    outer loop
      vertex -3 1.1 0
      vertex -3 -1.1 2
      vertex -3 -1.1 0
    endloop
  endfacet
  facet normal 0 1 -0
    outer loop
      vertex -1.1 -1.1 0
      vertex -3 -1.1 2
      vertex -1.1 -1.1 2
    endloop
  endfacet
  facet normal 0 1 0
    outer loop
      vertex -3 -1.1 2
      vertex -1.1 -1.1 0
      vertex -3 -1.1 0
    endloop
  endfacet
  facet normal 0 -1 0
    outer loop
      vertex -3 1.1 0
      vertex -1.1 1.1 2
      vertex -3 1.1 2
    endloop
  endfacet
  facet normal 0 -1 -0
    outer loop
      vertex -1.1 1.1 2
      vertex -3 1.1 0
      vertex -1.1 1.1 0
    endloop
  endfacet
  facet normal 0.743147 0.669128 0
    outer loop
      vertex 3.10203 2.5 4
      vertex 2.67652 2.97258 0
      vertex 2.67652 2.97258 4
    endloop
  endfacet
  facet normal 0.743147 0.669128 0
    outer loop
      vertex 2.67652 2.97258 0
      vertex 3.10203 2.5 4
      vertex 3.10203 2.5 0
    endloop
  endfacet
  facet normal 0.406743 0.913543 -0
    outer loop
      vertex 2 3.4641 0
      vertex 1.23607 3.80423 4
      vertex 2 3.4641 4
    endloop
  endfacet
  facet normal 0.406743 0.913543 0
    outer loop
      vertex 1.23607 3.80423 4
      vertex 2 3.4641 0
      vertex 1.23607 3.80423 0
    endloop
  endfacet
  facet normal -0.406743 0.913543 0
    outer loop
      vertex -1.23607 3.80423 0
      vertex -2 3.4641 4
      vertex -1.23607 3.80423 4
    endloop
  endfacet
  facet normal -0.406743 0.913543 0
    outer loop
      vertex -2 3.4641 4
      vertex -1.23607 3.80423 0
      vertex -2 3.4641 0
    endloop
  endfacet
  facet normal 0 1 -0
    outer loop
      vertex 0.418114 3.97809 0
      vertex -0.418114 3.97809 4
      vertex 0.418114 3.97809 4
    endloop
  endfacet
  facet normal 0 1 0
    outer loop
      vertex -0.418114 3.97809 4
      vertex 0.418114 3.97809 0
      vertex -0.418114 3.97809 0
    endloop
  endfacet
  facet normal 0.587785 0.809017 -0
    outer loop
      vertex 2.67652 2.97258 0
      vertex 2 3.4641 4
      vertex 2.67652 2.97258 4
    endloop
  endfacet
  facet normal 0.587785 0.809017 0
    outer loop
      vertex 2 3.4641 4
      vertex 2.67652 2.97258 0
      vertex 2 3.4641 0
    endloop
  endfacet
  facet normal -0.994522 0.104529 0
    outer loop
      vertex -4 0 0
      vertex -3.91259 0.831646 4
      vertex -3.91259 0.831646 0
    endloop
  endfacet
  facet normal -0.994522 0.104529 0
    outer loop
      vertex -3.91259 0.831646 4
      vertex -4 0 0
      vertex -4 0 4
    endloop
  endfacet
  facet normal -0.866026 0.499999 0
    outer loop
      vertex -3.65418 1.62695 0
      vertex -3.23607 2.35114 4
      vertex -3.23607 2.35114 0
    endloop
  endfacet
  facet normal -0.866026 0.499999 0
    outer loop
      vertex -3.23607 2.35114 4
      vertex -3.65418 1.62695 0
      vertex -3.65418 1.62695 4
    endloop
  endfacet
  facet normal -0.587785 0.809017 0
    outer loop
      vertex -2 3.4641 0
      vertex -2.67652 2.97258 4
      vertex -2 3.4641 4
    endloop
  endfacet
  facet normal -0.587785 0.809017 0
    outer loop
      vertex -2.67652 2.97258 4
      vertex -2 3.4641 0
      vertex -2.67652 2.97258 0
    endloop
  endfacet
  facet normal -0.207909 0.978148 0
    outer loop
      vertex -0.418114 3.97809 0
      vertex -1.23607 3.80423 4
      vertex -0.418114 3.97809 4
    endloop
  endfacet
  facet normal -0.207909 0.978148 0
    outer loop
      vertex -1.23607 3.80423 4
      vertex -0.418114 3.97809 0
      vertex -1.23607 3.80423 0
    endloop
  endfacet
  facet normal -0.743143 0.669133 0
    outer loop
      vertex -3.23607 2.35114 0
      vertex -2.67652 2.97258 4
      vertex -2.67652 2.97258 0
    endloop
  endfacet
  facet normal -0.743143 0.669133 0
    outer loop
      vertex -2.67652 2.97258 4
      vertex -3.23607 2.35114 0
      vertex -3.23607 2.35114 4
    endloop
  endfacet
  facet normal -0.866026 -0.499999 0
    outer loop
      vertex -3.23607 -2.35114 0
      vertex -3.65418 -1.62695 4
      vertex -3.65418 -1.62695 0
    endloop
  endfacet
  facet normal -0.866026 -0.499999 0
    outer loop
      vertex -3.65418 -1.62695 4
      vertex -3.23607 -2.35114 0
      vertex -3.23607 -2.35114 4
    endloop
  endfacet
  facet normal 0.587785 -0.809017 0
    outer loop
      vertex 2 -3.4641 0
      vertex 2.67652 -2.97258 4
      vertex 2 -3.4641 4
    endloop
  endfacet
  facet normal 0.587785 -0.809017 0
    outer loop
      vertex 2.67652 -2.97258 4
      vertex 2 -3.4641 0
      vertex 2.67652 -2.97258 0
    endloop
  endfacet
  facet normal 0.207909 0.978148 -0
    outer loop
      vertex 1.23607 3.80423 0
      vertex 0.418114 3.97809 4
      vertex 1.23607 3.80423 4
    endloop
  endfacet
  facet normal 0.207909 0.978148 0
    outer loop
      vertex 0.418114 3.97809 4
      vertex 1.23607 3.80423 0
      vertex 0.418114 3.97809 0
    endloop
  endfacet
  facet normal -0 0 1
    outer loop
      vertex 3.10203 2.5 4
      vertex 5 -2.5 4
      vertex 5 2.5 4
    endloop
  endfacet
  facet normal 0 0 1
    outer loop
      vertex 3.10203 2.5 4
      vertex 3.10203 -2.5 4
      vertex 5 -2.5 4
    endloop
  endfacet
  facet normal 0 0 1
    outer loop
      vertex 2 3.4641 4
      vertex 3.10203 2.5 4
      vertex 2.67652 2.97258 4
    endloop
  endfacet
  facet normal 0 0 1
    outer loop
      vertex 1.23607 3.80423 4
      vertex 3.10203 2.5 4
      vertex 2 3.4641 4
    endloop
  endfacet
  facet normal 0 0 1
    outer loop
      vertex 3.10203 2.5 4
      vertex 1.23607 3.80423 4
      vertex 3.10203 -2.5 4
    endloop
  endfacet
  facet normal 0 0 1
    outer loop
      vertex 3.10203 -2.5 4
      vertex 2 -3.4641 4
      vertex 2.67652 -2.97258 4
    endloop
  endfacet
  facet normal 0 0 1
    outer loop
      vertex 1.23607 -3.80423 4
      vertex 3.10203 -2.5 4
      vertex 1.23607 3.80423 4
    endloop
  endfacet
  facet normal 0 0 1
    outer loop
      vertex 3.10203 -2.5 4
      vertex 1.23607 -3.80423 4
      vertex 2 -3.4641 4
    endloop
  endfacet
  facet normal 0 0 1
    outer loop
      vertex 0.418114 3.97809 4
      vertex 1.23607 -3.80423 4
      vertex 1.23607 3.80423 4
    endloop
  endfacet
  facet normal 0 0 1
    outer loop
      vertex 0.418114 3.97809 4
      vertex 0.418114 -3.97809 4
      vertex 1.23607 -3.80423 4
    endloop
  endfacet
  facet normal -0 0 1
    outer loop
      vertex -0.418114 3.97809 4
      vertex 0.418114 -3.97809 4
      vertex 0.418114 3.97809 4
    endloop
  endfacet
  facet normal 0 0 1
    outer loop
      vertex -0.418114 3.97809 4
      vertex -0.418114 -3.97809 4
      vertex 0.418114 -3.97809 4
    endloop
  endfacet
  facet normal -0 0 1
    outer loop
      vertex -1.23607 3.80423 4
      vertex -0.418114 -3.97809 4
      vertex -0.418114 3.97809 4
    endloop
  endfacet
  facet normal 0 0 1
    outer loop
      vertex -1.23607 3.80423 4
      vertex -1.23607 -3.80423 4
      vertex -0.418114 -3.97809 4
    endloop
  endfacet
  facet normal -0 0 1
    outer loop
      vertex -2 3.4641 4
      vertex -1.23607 -3.80423 4
      vertex -1.23607 3.80423 4
    endloop
  endfacet
  facet normal 0 0 1
    outer loop
      vertex -2 3.4641 4
      vertex -2 -3.4641 4
      vertex -1.23607 -3.80423 4
    endloop
  endfacet
  facet normal -0 0 1
    outer loop
      vertex -2.67652 2.97258 4
      vertex -2 -3.4641 4
      vertex -2 3.4641 4
    endloop
  endfacet
  facet normal 0 0 1
    outer loop
      vertex -2.67652 2.97258 4
      vertex -2.67652 -2.97258 4
      vertex -2 -3.4641 4
    endloop
  endfacet
  facet normal -0 0 1
    outer loop
      vertex -3.23607 2.35114 4
      vertex -2.67652 -2.97258 4
      vertex -2.67652 2.97258 4
    endloop
  endfacet
  facet normal 0 0 1
    outer loop
      vertex -3.23607 2.35114 4
      vertex -3.23607 -2.35114 4
      vertex -2.67652 -2.97258 4
    endloop
  endfacet
  facet normal -0 0 1
    outer loop
      vertex -3.65418 1.62695 4
      vertex -3.23607 -2.35114 4
      vertex -3.23607 2.35114 4
    endloop
  endfacet
  facet normal 0 0 1
    outer loop
      vertex -3.65418 1.62695 4
      vertex -3.65418 -1.62695 4
      vertex -3.23607 -2.35114 4
    endloop
  endfacet
  facet normal -0 0 1
    outer loop
      vertex -3.91259 0.831646 4
      vertex -3.65418 -1.62695 4
      vertex -3.65418 1.62695 4
    endloop
  endfacet
  facet normal 0 0 1
    outer loop
      vertex -3.91259 0.831646 4
      vertex -3.91259 -0.831646 4
      vertex -3.65418 -1.62695 4
    endloop
  endfacet
  facet normal 0 -0 1
    outer loop
      vertex -3.91259 -0.831646 4
      vertex -3.91259 0.831646 4
      vertex -4 0 4
    endloop
  endfacet
  facet normal -0.951056 0.309017 0
    outer loop
      vertex -3.91259 0.831646 0
      vertex -3.65418 1.62695 4
      vertex -3.65418 1.62695 0
    endloop
  endfacet
  facet normal -0.951056 0.309017 0
    outer loop
      vertex -3.65418 1.62695 4
      vertex -3.91259 0.831646 0
      vertex -3.91259 0.831646 4
    endloop
  endfacet
  facet normal 0 -1 0
    outer loop
      vertex -0.418114 -3.97809 0
      vertex 0.418114 -3.97809 4
      vertex -0.418114 -3.97809 4
    endloop
  endfacet
  facet normal 0 -1 -0
    outer loop
      vertex 0.418114 -3.97809 4
      vertex -0.418114 -3.97809 0
      vertex 0.418114 -3.97809 0
    endloop
  endfacet
  facet normal -0.994522 -0.104529 0
    outer loop
      vertex -3.91259 -0.831646 0
      vertex -4 0 4
      vertex -4 0 0
    endloop
  endfacet
  facet normal -0.994522 -0.104529 0
    outer loop
      vertex -4 0 4
      vertex -3.91259 -0.831646 0
      vertex -3.91259 -0.831646 4
    endloop
  endfacet
  facet normal 0 0 -1
    outer loop
      vertex -2.67652 2.97258 0
      vertex -1.1 3 0
      vertex -1.1 1.1 0
    endloop
  endfacet
  facet normal 0 0 -1
    outer loop
      vertex -1.1 3 0
      vertex -2 3.4641 0
      vertex -1.23607 3.80423 0
    endloop
  endfacet
  facet normal -0 0 -1
    outer loop
      vertex -1.1 3 0
      vertex -2.67652 2.97258 0
      vertex -2 3.4641 0
    endloop
  endfacet
  facet normal 0 0 -1
    outer loop
      vertex -3 1.1 0
      vertex -2.67652 2.97258 0
      vertex -1.1 1.1 0
    endloop
  endfacet
  facet normal 0 0 -1
    outer loop
      vertex -3 1.1 0
      vertex -3.23607 2.35114 0
      vertex -2.67652 2.97258 0
    endloop
  endfacet
  facet normal 0 0 -1
    outer loop
      vertex -3.91259 -0.831646 0
      vertex -3 -1.1 0
      vertex -3.65418 -1.62695 0
    endloop
  endfacet
  facet normal 0 0 -1
    outer loop
      vertex -4 0 0
      vertex -3 -1.1 0
      vertex -3.91259 -0.831646 0
    endloop
  endfacet
  facet normal 0 0 -1
    outer loop
      vertex -3 1.1 0
      vertex -3.65418 1.62695 0
      vertex -3.23607 2.35114 0
    endloop
  endfacet
  facet normal 0 0 -1
    outer loop
      vertex -3 -1.1 0
      vertex -4 0 0
      vertex -3 1.1 0
    endloop
  endfacet
  facet normal -0 0 -1
    outer loop
      vertex -3 1.1 0
      vertex -3.91259 0.831646 0
      vertex -3.65418 1.62695 0
    endloop
  endfacet
  facet normal 0 0 -1
    outer loop
      vertex -3 1.1 0
      vertex -4 0 0
      vertex -3.91259 0.831646 0
    endloop
  endfacet
  facet normal 0 0 -1
    outer loop
      vertex 0 -2.5 0
      vertex 1.1 2.5 0
      vertex 1.1 -2.5 0
    endloop
  endfacet
  facet normal -0 0 -1
    outer loop
      vertex 1.1 2.5 0
      vertex 0 -2.5 0
      vertex 0 2.5 0
    endloop
  endfacet
  facet normal 0 0 -1
    outer loop
      vertex 3.10203 -2.5 0
      vertex 28 2.5 0
      vertex 28 -2.5 0
    endloop
  endfacet
  facet normal 0 0 -1
    outer loop
      vertex 3.10203 -2.5 0
      vertex 3.10203 2.5 0
      vertex 28 2.5 0
    endloop
  endfacet
  facet normal 0 0 -1
    outer loop
      vertex 1.1 -2.5 0
      vertex 3.10203 -2.5 0
      vertex 2.67652 -2.97258 0
    endloop
  endfacet
  facet normal 0 0 -1
    outer loop
      vertex 3.10203 -2.5 0
      vertex 1.1 -2.5 0
      vertex 3.10203 2.5 0
    endloop
  endfacet
  facet normal 0 0 -1
    outer loop
      vertex 1.1 -2.5 0
      vertex 2.67652 -2.97258 0
      vertex 2 -3.4641 0
    endloop
  endfacet
  facet normal 0 0 -1
    outer loop
      vertex 1.1 2.5 0
      vertex 3.10203 2.5 0
      vertex 1.1 -2.5 0
    endloop
  endfacet
  facet normal 0 0 -1
    outer loop
      vertex 1.1 -3 0
      vertex 2 -3.4641 0
      vertex 1.23607 -3.80423 0
    endloop
  endfacet
  facet normal 0 0 -1
    outer loop
      vertex 3.10203 2.5 0
      vertex 1.1 2.5 0
      vertex 2.67652 2.97258 0
    endloop
  endfacet
  facet normal 0 0 -1
    outer loop
      vertex 2 -3.4641 0
      vertex 1.1 -3 0
      vertex 1.1 -2.5 0
    endloop
  endfacet
  facet normal 0 0 -1
    outer loop
      vertex 0.418114 -3.97809 0
      vertex 1.1 -3 0
      vertex 1.23607 -3.80423 0
    endloop
  endfacet
  facet normal 0 0 -1
    outer loop
      vertex -0.418114 -3.97809 0
      vertex 1.1 -3 0
      vertex 0.418114 -3.97809 0
    endloop
  endfacet
  facet normal 0 0 -1
    outer loop
      vertex -0.418114 -3.97809 0
      vertex -1.1 -3 0
      vertex 1.1 -3 0
    endloop
  endfacet
  facet normal 0 0 -1
    outer loop
      vertex -1.23607 -3.80423 0
      vertex -1.1 -3 0
      vertex -0.418114 -3.97809 0
    endloop
  endfacet
  facet normal 0 0 -1
    outer loop
      vertex -2 -3.4641 0
      vertex -1.1 -3 0
      vertex -1.23607 -3.80423 0
    endloop
  endfacet
  facet normal 0 0 -1
    outer loop
      vertex -2.67652 -2.97258 0
      vertex -1.1 -3 0
      vertex -2 -3.4641 0
    endloop
  endfacet
  facet normal 0 0 -1
    outer loop
      vertex -1.1 -3 0
      vertex -2.67652 -2.97258 0
      vertex -1.1 -1.1 0
    endloop
  endfacet
  facet normal 0 0 -1
    outer loop
      vertex -2.67652 -2.97258 0
      vertex -3 -1.1 0
      vertex -1.1 -1.1 0
    endloop
  endfacet
  facet normal 0 0 -1
    outer loop
      vertex -3.65418 -1.62695 0
      vertex -3 -1.1 0
      vertex -3.23607 -2.35114 0
    endloop
  endfacet
  facet normal 0 0 -1
    outer loop
      vertex -3.23607 -2.35114 0
      vertex -3 -1.1 0
      vertex -2.67652 -2.97258 0
    endloop
  endfacet
  facet normal 0 0 -1
    outer loop
      vertex 28 -2.5 0
      vertex 30 -10 0
      vertex 28 -10 0
    endloop
  endfacet
  facet normal 0 0 -1
    outer loop
      vertex 30 -10 0
      vertex 28 -2.5 0
      vertex 30 10 0
    endloop
  endfacet
  facet normal 0 0 -1
    outer loop
      vertex 28 2.5 0
      vertex 30 10 0
      vertex 28 -2.5 0
    endloop
  endfacet
  facet normal -0 0 -1
    outer loop
      vertex 30 10 0
      vertex 28 2.5 0
      vertex 28 10 0
    endloop
  endfacet
  facet normal -0 0 -1
    outer loop
      vertex 2.67652 2.97258 0
      vertex 1.1 2.5 0
      vertex 2 3.4641 0
    endloop
  endfacet
  facet normal 0 0 -1
    outer loop
      vertex 1.1 3 0
      vertex 2 3.4641 0
      vertex 1.1 2.5 0
    endloop
  endfacet
  facet normal -0 0 -1
    outer loop
      vertex 2 3.4641 0
      vertex 1.1 3 0
      vertex 1.23607 3.80423 0
    endloop
  endfacet
  facet normal 0 0 -1
    outer loop
      vertex 1.1 3 0
      vertex 0.418114 3.97809 0
      vertex 1.23607 3.80423 0
    endloop
  endfacet
  facet normal 0 0 -1
    outer loop
      vertex 1.1 3 0
      vertex -0.418114 3.97809 0
      vertex 0.418114 3.97809 0
    endloop
  endfacet
  facet normal 0 0 -1
    outer loop
      vertex -1.1 3 0
      vertex -0.418114 3.97809 0
      vertex 1.1 3 0
    endloop
  endfacet
  facet normal 0 0 -1
    outer loop
      vertex -0.418114 3.97809 0
      vertex -1.1 3 0
      vertex -1.23607 3.80423 0
    endloop
  endfacet
  facet normal 0.207909 -0.978148 0
    outer loop
      vertex 0.418114 -3.97809 0
      vertex 1.23607 -3.80423 4
      vertex 0.418114 -3.97809 4
    endloop
  endfacet
  facet normal 0.207909 -0.978148 0
    outer loop
      vertex 1.23607 -3.80423 4
      vertex 0.418114 -3.97809 0
      vertex 1.23607 -3.80423 0
    endloop
  endfacet
  facet normal 0.406743 -0.913543 0
    outer loop
      vertex 1.23607 -3.80423 0
      vertex 2 -3.4641 4
      vertex 1.23607 -3.80423 4
    endloop
  endfacet
  facet normal 0.406743 -0.913543 0
    outer loop
      vertex 2 -3.4641 4
      vertex 1.23607 -3.80423 0
      vertex 2 -3.4641 0
    endloop
  endfacet
  facet normal -0.951056 -0.309017 0
    outer loop
      vertex -3.65418 -1.62695 0
      vertex -3.91259 -0.831646 4
      vertex -3.91259 -0.831646 0
    endloop
  endfacet
  facet normal -0.951056 -0.309017 0
    outer loop
      vertex -3.91259 -0.831646 4
      vertex -3.65418 -1.62695 0
      vertex -3.65418 -1.62695 4
    endloop
  endfacet
  facet normal -0.743143 -0.669133 0
    outer loop
      vertex -2.67652 -2.97258 0
      vertex -3.23607 -2.35114 4
      vertex -3.23607 -2.35114 0
    endloop
  endfacet
  facet normal -0.743143 -0.669133 0
    outer loop
      vertex -3.23607 -2.35114 4
      vertex -2.67652 -2.97258 0
      vertex -2.67652 -2.97258 4
    endloop
  endfacet
  facet normal 0.743147 -0.669128 0
    outer loop
      vertex 2.67652 -2.97258 4
      vertex 3.10203 -2.5 0
      vertex 3.10203 -2.5 4
    endloop
  endfacet
  facet normal 0.743147 -0.669128 0
    outer loop
      vertex 3.10203 -2.5 0
      vertex 2.67652 -2.97258 4
      vertex 2.67652 -2.97258 0
    endloop
  endfacet
  facet normal -0.587785 -0.809017 0
    outer loop
      vertex -2.67652 -2.97258 0
      vertex -2 -3.4641 4
      vertex -2.67652 -2.97258 4
    endloop
  endfacet
  facet normal -0.587785 -0.809017 -0
    outer loop
      vertex -2 -3.4641 4
      vertex -2.67652 -2.97258 0
      vertex -2 -3.4641 0
    endloop
  endfacet
  facet normal -0.406743 -0.913543 0
    outer loop
      vertex -2 -3.4641 0
      vertex -1.23607 -3.80423 4
      vertex -2 -3.4641 4
    endloop
  endfacet
  facet normal -0.406743 -0.913543 -0
    outer loop
      vertex -1.23607 -3.80423 4
      vertex -2 -3.4641 0
      vertex -1.23607 -3.80423 0
    endloop
  endfacet
  facet normal -0.207909 -0.978148 0
    outer loop
      vertex -1.23607 -3.80423 0
      vertex -0.418114 -3.97809 4
      vertex -1.23607 -3.80423 4
    endloop
  endfacet
  facet normal -0.207909 -0.978148 -0
    outer loop
      vertex -0.418114 -3.97809 4
      vertex -1.23607 -3.80423 0
      vertex -0.418114 -3.97809 0
    endloop
  endfacet
  facet normal -1 0 0
    outer loop
      vertex 0 -2.5 0
      vertex 0 2.5 2
      vertex 0 2.5 0
    endloop
  endfacet
  facet normal -1 -0 0
    outer loop
      vertex 0 2.5 2
      vertex 0 -2.5 0
      vertex 0 -2.5 2
    endloop
  endfacet
  facet normal -0 0 1
    outer loop
      vertex 5 2.5 3
      vertex 28 -2.5 3
      vertex 28 2.5 3
    endloop
  endfacet
  facet normal 0 0 1
    outer loop
      vertex 28 -2.5 3
      vertex 5 2.5 3
      vertex 5 -2.5 3
    endloop
  endfacet
  facet normal 1 -0 0
    outer loop
      vertex 30 -10 12
      vertex 30 10 0
      vertex 30 10 12
    endloop
  endfacet
  facet normal 1 0 0
    outer loop
      vertex 30 10 0
      vertex 30 -10 12
      vertex 30 -10 0
    endloop
  endfacet
  facet normal 0 1 0
    outer loop
      vertex 28 2.5 3
      vertex 28 2.5 0
      vertex 5 2.5 3
    endloop
  endfacet
  facet normal 0 1 -0
    outer loop
      vertex 5 2.5 3
      vertex 3.10203 2.5 4
      vertex 5 2.5 4
    endloop
  endfacet
  facet normal 0 1 0
    outer loop
      vertex 5 2.5 3
      vertex 3.10203 2.5 0
      vertex 3.10203 2.5 4
    endloop
  endfacet
  facet normal 0 1 0
    outer loop
      vertex 3.10203 2.5 0
      vertex 5 2.5 3
      vertex 28 2.5 0
    endloop
  endfacet
  facet normal 0 1 -0
    outer loop
      vertex 1.1 2.5 0
      vertex 0 2.5 2
      vertex 1.1 2.5 2
    endloop
  endfacet
  facet normal 0 1 0
    outer loop
      vertex 0 2.5 2
      vertex 1.1 2.5 0
      vertex 0 2.5 0
    endloop
  endfacet
  facet normal 0 -1 0
    outer loop
      vertex 3.10203 -2.5 4
      vertex 5 -2.5 3
      vertex 5 -2.5 4
    endloop
  endfacet
  facet normal 0 -1 0
    outer loop
      vertex 3.10203 -2.5 0
      vertex 5 -2.5 3
      vertex 3.10203 -2.5 4
    endloop
  endfacet
  facet normal 0 -1 0
    outer loop
      vertex 28 -2.5 0
      vertex 5 -2.5 3
      vertex 3.10203 -2.5 0
    endloop
  endfacet
  facet normal 0 -1 0
    outer loop
      vertex 5 -2.5 3
      vertex 28 -2.5 0
      vertex 28 -2.5 3
    endloop
  endfacet
  facet normal 0 -1 0
    outer loop
      vertex 0 -2.5 0
      vertex 1.1 -2.5 2
      vertex 0 -2.5 2
    endloop
  endfacet
  facet normal 0 -1 -0
    outer loop
      vertex 1.1 -2.5 2
      vertex 0 -2.5 0
      vertex 1.1 -2.5 0
    endloop
  endfacet
  facet normal -1 0 0
    outer loop
      vertex 28 -2.5 0
      vertex 28 -10 0
      vertex 28 -2.5 3
    endloop
  endfacet
  facet normal -1 0 0
    outer loop
      vertex 28 2.5 3
      vertex 28 10 0
      vertex 28 2.5 0
    endloop
  endfacet
  facet normal -1 0 0
    outer loop
      vertex 28 10 0
      vertex 28 2.5 3
      vertex 28 10 12
    endloop
  endfacet
  facet normal -1 0 0
    outer loop
      vertex 28 -2.5 3
      vertex 28 10 12
      vertex 28 2.5 3
    endloop
  endfacet
  facet normal -1 0 0
    outer loop
      vertex 28 -10 12
      vertex 28 -2.5 3
      vertex 28 -10 0
    endloop
  endfacet
  facet normal -1 0 0
    outer loop
      vertex 28 -2.5 3
      vertex 28 -10 12
      vertex 28 10 12
    endloop
  endfacet
  facet normal -0 0 1
    outer loop
      vertex 28 10 12
      vertex 30 -10 12
      vertex 30 10 12
    endloop
  endfacet
  facet normal 0 0 1
    outer loop
      vertex 30 -10 12
      vertex 28 10 12
      vertex 28 -10 12
    endloop
  endfacet
  facet normal 0 1 -0
    outer loop
      vertex 30 10 0
      vertex 28 10 12
      vertex 30 10 12
    endloop
  endfacet
  facet normal 0 1 0
    outer loop
      vertex 28 10 12
      vertex 30 10 0
      vertex 28 10 0
    endloop
  endfacet
  facet normal 0 -1 0
    outer loop
      vertex 28 -10 0
      vertex 30 -10 12
      vertex 28 -10 12
    endloop
  endfacet
  facet normal 0 -1 -0
    outer loop
      vertex 30 -10 12
      vertex 28 -10 0
      vertex 30 -10 0
    endloop
  endfacet
  facet normal 1 -0 0
    outer loop
      vertex 5 -2.5 4
      vertex 5 2.5 3
      vertex 5 2.5 4
    endloop
  endfacet
  facet normal 1 0 0
    outer loop
      vertex 5 2.5 3
      vertex 5 -2.5 4
      vertex 5 -2.5 3
    endloop
  endfacet
endsolid OpenSCAD_Model
