solid OpenSCAD_Model
  facet normal -1 0 0
    outer loop
      vertex 0 0 0
      vertex 0 0.599999 40.5
      vertex 0 0.599999 0
    endloop
  endfacet
  facet normal -1 -0 0
    outer loop
      vertex 0 0.599999 40.5
      vertex 0 0 0
      vertex 0 0 40.5
    endloop
  endfacet
  facet normal -0 0 1
    outer loop
      vertex 0 0.599999 40.5
      vertex 54 0 40.5
      vertex 54 0.599999 40.5
    endloop
  endfacet
  facet normal 0 0 1
    outer loop
      vertex 54 0 40.5
      vertex 0 0.599999 40.5
      vertex 0 0 40.5
    endloop
  endfacet
  facet normal 1 -0 0
    outer loop
      vertex 54 0 40.5
      vertex 54 0.599999 0
      vertex 54 0.599999 40.5
    endloop
  endfacet
  facet normal 1 0 0
    outer loop
      vertex 54 0.599999 0
      vertex 54 0 40.5
      vertex 54 0 0
    endloop
  endfacet
  facet normal 0 0 -1
    outer loop
      vertex 0 0 0
      vertex 54 0.599999 0
      vertex 54 0 0
    endloop
  endfacet
  facet normal -0 0 -1
    outer loop
      vertex 54 0.599999 0
      vertex 0 0 0
      vertex 0 0.599999 0
    endloop
  endfacet
  facet normal 0 -1 0
    outer loop
      vertex 0 0 40.5
      vertex 3 0 37.5
      vertex 54 0 40.5
    endloop
  endfacet
  facet normal 0 -1 0
    outer loop
      vertex 0 0 40.5
      vertex 3 0 3
      vertex 3 0 37.5
    endloop
  endfacet
  facet normal 0 -1 -0
    outer loop
      vertex 3 0 3
      vertex 0 0 0
      vertex 51 0 3
    endloop
  endfacet
  facet normal 0 -1 0
    outer loop
      vertex 0 0 0
      vertex 3 0 3
      vertex 0 0 40.5
    endloop
  endfacet
  facet normal 0 -1 0
    outer loop
      vertex 51 0 37.5
      vertex 54 0 40.5
      vertex 3 0 37.5
    endloop
  endfacet
  facet normal 0 -1 0
    outer loop
      vertex 51 0 3
      vertex 54 0 40.5
      vertex 51 0 37.5
    endloop
  endfacet
  facet normal 0 -1 0
    outer loop
      vertex 51 0 3
      vertex 54 0 0
      vertex 54 0 40.5
    endloop
  endfacet
  facet normal 0 -1 0
    outer loop
      vertex 54 0 0
      vertex 51 0 3
      vertex 0 0 0
    endloop
  endfacet
  facet normal 0 1 0
    outer loop
      vertex 54 0.599999 40.5
      vertex 51 0.599999 37.5
      vertex 0 0.599999 40.5
    endloop
  endfacet
  facet normal 0 1 0
    outer loop
      vertex 54 0.599999 40.5
      vertex 51 0.599999 3
      vertex 51 0.599999 37.5
    endloop
  endfacet
  facet normal 0 1 0
    outer loop
      vertex 51 0.599999 3
      vertex 54 0.599999 0
      vertex 3 0.599999 3
    endloop
  endfacet
  facet normal 0 1 -0
    outer loop
      vertex 54 0.599999 0
      vertex 51 0.599999 3
      vertex 54 0.599999 40.5
    endloop
  endfacet
  facet normal 0 1 -0
    outer loop
      vertex 3 0.599999 37.5
      vertex 0 0.599999 40.5
      vertex 51 0.599999 37.5
    endloop
  endfacet
  facet normal 0 1 -0
    outer loop
      vertex 3 0.599999 3
      vertex 0 0.599999 40.5
      vertex 3 0.599999 37.5
    endloop
  endfacet
  facet normal 0 1 0
    outer loop
      vertex 3 0.599999 3
      vertex 0 0.599999 0
      vertex 0 0.599999 40.5
    endloop
  endfacet
  facet normal 0 1 0
    outer loop
      vertex 0 0.599999 0
      vertex 3 0.599999 3
      vertex 54 0.599999 0
    endloop
  endfacet
  facet normal 1 -0 0
    outer loop
      vertex 3 0 37.5
      vertex 3 0.599999 3
      vertex 3 0.599999 37.5
    endloop
  endfacet
  facet normal 1 0 0
    outer loop
      vertex 3 0.599999 3
      vertex 3 0 37.5
      vertex 3 0 3
    endloop
  endfacet
  facet normal 0 0 -1
    outer loop
      vertex 3 0 37.5
      vertex 51 0.599999 37.5
      vertex 51 0 37.5
    endloop
  endfacet
  facet normal -0 0 -1
    outer loop
      vertex 51 0.599999 37.5
      vertex 3 0 37.5
      vertex 3 0.599999 37.5
    endloop
  endfacet
  facet normal -1 0 0
    outer loop
      vertex 51 0 3
      vertex 51 0.599999 37.5
      vertex 51 0.599999 3
    endloop
  endfacet
  facet normal -1 -0 0
    outer loop
      vertex 51 0.599999 37.5
      vertex 51 0 3
      vertex 51 0 37.5
    endloop
  endfacet
  facet normal -0 0 1
    outer loop
      vertex 3 0.599999 3
      vertex 51 0 3
      vertex 51 0.599999 3
    endloop
  endfacet
  facet normal 0 0 1
    outer loop
      vertex 51 0 3
      vertex 3 0.599999 3
      vertex 3 0 3
    endloop
  endfacet
endsolid OpenSCAD_Model
